<?xml version="1.0" encoding="utf-8"?>
<!-- Generator: Adobe Illustrator 22.0.1, SVG Export Plug-In . SVG Version: 6.00 Build 0)  -->
<!DOCTYPE svg PUBLIC "-//W3C//DTD SVG 1.1//EN" "http://www.w3.org/Graphics/SVG/1.1/DTD/svg11.dtd">
<svg version="1.1" id="Layer_1" xmlns="http://www.w3.org/2000/svg" xmlns:xlink="http://www.w3.org/1999/xlink" x="0px" y="0px"
	 viewBox="0 0 321 156" style="enable-background:new 0 0 321 156;" xml:space="preserve">
<style type="text/css">
	.st0{fill:#FFFFFF;}
	.st1{fill-rule:evenodd;clip-rule:evenodd;fill:#FFFFFF;}
</style>
<g>
	<g>
		<path class="st0" d="M242.1,54.4c-0.5-1-2.2,0.8-2.7-0.2c-2.2-1.2-4.5-2.5-4.5-4.3c-0.3-1.9-0.1-4-1.9-5.1
			c-0.3-0.1-0.6-0.2-0.8-0.3c0.2-0.3-0.1-0.4-0.3-0.4c-0.4-0.1-1.1,0.2-1-0.4c-0.2-0.1-0.5-0.2-0.8-0.1c0-0.5-0.4-0.6-0.8-0.9
			c0.4-0.3,0.9-0.5,1-1.1c1.1-0.9,0.7-2.7,0.4-3.8c0-0.7-0.2-1.4-0.5-2c-0.9-0.7-0.7-1.9-1.5-2.6c-0.6-0.4-0.9-1.2-1.7-1.3
			c-0.7,0.1-1.1-0.5-1.7-0.2c-0.4,0.3-1,0-1.6,0.1c-0.4,0.1-0.9,0.4-1,0.7c0.2-0.1,0.5-0.3,0.7-0.3c-0.3,0.2-0.6,0.3-0.8,0.6
			c-1,1.4-1.8,2.9-2.4,4.4c-0.1,0.3-0.3,0.7-0.1,1c-0.1,0.6-0.4,1.5,0.1,2c-0.1,0.4,0.3,0.8,0.5,1c-0.1,0.3-0.3,0.5-0.6,0.7
			c0.2,0.2,0.5,0.2,0.8,0.3l-0.1,0.1c0.3,0.1,0.5-0.2,0.7-0.1c-0.1,0.2-0.2,0.4-0.3,0.6c-0.6,0.5-1.4,0.2-1.9,0.8
			c-0.2-0.1-0.3-0.3-0.6-0.2c0,0.1-0.1,0.2-0.1,0.4c-0.7,0.2-1.5,0.3-2.1,0.9c-0.5,0.9-2,1.5-2.1,2.8c-0.8,1.2-0.9,1.3-1.7,2.4
			c-0.2,0.8-0.9,1.3-1.5,1.4c-2.8-0.3-3.5-1.7-6.4-2.7v3.7l5.6,3.6c0.7-0.6,1.6,1.6,4.1-1.3c1.4-1,2-2.7,2.7-3.6
			c0.1,1.1,0.1,2.3,1,3.1c-0.1,0.6-0.1,1.2,0.5,1.5c-0.5,0.6-0.5,1.4-0.5,2.1c-0.5,0.6-0.5,1.5-0.4,2.3c0.1,0,0.1,0,0.2,0.1
			c-0.1,0.3-0.2,0.6-0.1,1c-0.2,0.2-0.2,0.5-0.2,0.7c-0.1,0-0.2,0.1-0.2,0.2c0.1,0.3-0.1,0.6,0.2,0.7c-0.8,1.6-0.7,3.8-0.4,5.6
			c0.6,2.5,1.1,5,1.3,7.6c0.1,0.4,0,0.9,0.1,1.2c0.4,0.1,0.7,0.3,1,0.5c-0.1,1.1,0.1,2.1,0.2,3.2l-0.2,2.2c-0.3,2.9,0.6,5.6,1.2,8.2
			c0.4,0.9,0.3,2.1-0.3,2.8c-0.2,0.7-0.8,1.2-1.2,1.8c-0.1,0.4-0.4,0.7-0.8,1c-0.4-0.1-0.6,0.2-0.8,0.5c0.1,0.5-0.2,1.2,0.1,1.7
			c1,0.5,2.5,0.7,3.5,0.1c0.6-0.4,0.9-1,0.8-1.7c0.2-0.3,0.3-0.6,0.6-0.7c0-0.4,0.8-0.1,0.8-0.5c0-1.1-0.1-2.3-0.4-3.4
			c0.1-1.1,0.4-2.2,0.5-3.3c0.7-2.4,0.8-5.1,0.9-7.8c0.7-1.2,0.9-2.7,0.6-4c0.6-0.2,0.9-0.7,1.2-1.2c0,0.3,0.5,0.3,0.8,0.4
			c0,1-0.3,1.8-0.3,2.8c0,1.1,0.7,2,0.9,3.1c-0.2,2.2,0.3,4.3,0.8,6.2c0.4,1.9,1,3.9,0.7,6c0.4,1-0.3,1.9-0.3,2.9
			c0,0.6,0.4,1.1,1,1.3c0,0.7,0.1,1.4,0.5,1.9c0.9,0.7,2.4,0.5,3.4,0.1c0.4-0.3,0.6-0.8,0.6-1.3c0-0.3-0.2-0.6-0.4-0.8
			c-0.7-0.4-0.6-1.1-1-1.6c-0.2-0.5-0.9-0.4-0.9-0.9c0.1-0.8-0.3-1.5-0.6-2.2c-0.1-1.8,0.4-3.5,0.8-5.2c0.4-2.3,0.6-5-0.2-7.2l0-1.6
			c0.1-1,0-2.1-0.1-3c0.8-0.1,1.7-0.1,2.4-0.6c0-0.2-0.1-0.3,0-0.4c-0.2-0.8,0-1.8-0.3-2.5c-0.6-3.8,0.5-8.1-0.9-11.6
			c0-0.2,0.4-0.4,0.1-0.6c-0.6-0.5-0.2-1.3-0.8-1.8c0.3-0.4,0.6-0.7,0.6-1.2c0-0.6-0.5-1-0.9-1.4c0.3-0.8-0.2-1.4-0.7-2
			c0.4-0.4,0.5-0.8,0.7-1.3c0.1,0.2,0.1,0.4,0.1,0.6c0.8,1.1,2.9,1.8,3.8,2.8c0,0.1,2.4,0.4,2.3,0.6c0.5,0.9,0.9-0.5,1.5,0
			L242.1,54.4z"/>
		<path class="st1" d="M155.8,54c0.4-0.5,2.8-0.6,3.1-0.6c0,0,0.1-0.4,0.4-0.5c0,0,4.4-3.2,4.7-3.8c0,0,0.4-0.7,0.4-1
			c0,0,0.2-0.6,0.7-1.1c0,0,1.3-1.6,1.4-1.8c0,0-0.2-0.7,0.8-1.1c0,0,0.9-0.5,1.4-0.8c0,0,0.4-0.2,0.4-0.6c0,0,0.3-0.5,0.5-0.6
			c0,0,0.3-1.5,1-2.2c0,0,0.5-0.3,0.5-1.3c0,0-0.3-0.8-0.1-1.2c0,0,0.1-0.6,0-0.9c0,0-0.1-0.1-0.1-0.4c0,0-1-1.6,0.5-2.5
			c0,0-0.4-2.2,3.2-2c0,0,1.5,0.2,2.2,0.9c0,0-0.1-0.5,0.7,0.3c0,0,0.6,0.8,0.9,1.3c0,0,1.5,1.2,1.6,3.7c0,0,0,0.7,0.4,1l-0.2,0
			c0,0-0.4,1.1,1,2.3c0,0,0.7,0.7,0.3,2.1c0,0,0.8,0.2,0.9,0.7c0,0,0.1,0.1,0.2,0.2c0,0,0.4-0.1,0.5,0.4c0,0,0.4,0.1,0.5,0.5
			c0,0,1,0.7,1.9,1.9c0,0,0.2,0,0.1,0.3c0,0,0.5,0.7,0.6,0.9c0,0,0.3,0.3,0.3,0.4c0,0,2.1,2.3,3.6,2.9c0,0,1.1,0.6,2.1,1.6l0.6,0.7
			l0.3,0.1c0,0-2.9,2.8-4,1.9c-1.1-0.9-3.7-2.6-3.9-2.9c0,0-1.7-1.2-2-1.4c0,0-0.2-0.1-0.3-0.1c0,0-0.8,1.9-1,4.7c0,0-0.4,3.5,0,5.8
			c0,0,0.4,2.7,0.6,3.1l-0.4,0.1c0,0,0.3,2.8,0.1,4.1l0,2.4c0,0,0.1,2.1-0.2,3l-0.1,2c0,0,0,2.2-0.2,2.6l-0.1,1.5l-0.9-0.2
			c0,0-0.6,0.3-0.7,0.4c0,0,0,0.9,0.3,1.9c0,0,0.7,2.8,0.2,4.4c0,0-1,4-1.3,5.4c0,0-0.2,1.2,0,1.7c0,0,0.2,0.4-0.1,1.1
			c0,0,0.3,1,0.6,4.1c0,0,0.1,0.7-0.5,1.8c0,0-0.4,0.8-0.8,0.8c0,0-1.4,0.2-1.9-0.2c0,0-0.6-0.6-0.5-1.4c0,0-0.3-0.8,0.1-1.7
			c0,0,0-0.6,0.1-0.8c0,0,0.1-1.5,0-1.9c0,0,0-1,0.4-1.3c0,0-0.2-0.7,0.3-1.2c0,0,0.4-1.2,0-2.7c0,0-0.9-5.2-0.8-6.8
			c0,0,0-1.5-0.4-2c0,0-0.3-0.7-0.3-1c0,0-2.6-0.1-3-0.2c0,0-0.3,1-0.4,1.3c0,0-0.3,0.9,0,1.5c0,0,0.6,2.5-0.6,4.9
			c0,0-1.1,2.7-0.5,5c0,0,1.2,0.8,0.8,2.4l0.1,2.3l-0.8,0.2l-0.8-0.6l0.1-0.8c0,0-1.2,0.3-2,2.2c0,0-0.2,0.9-2.1,1.1
			c0,0-1.5,0.4-2.3-0.2c0,0-0.6-0.5-0.3-0.7c0,0,0.2-0.3,0.5-0.4l1.1-0.9c0,0,0.5-0.4,0.7-0.4c0,0,0.6-0.4,0.9-1
			c0,0,0.5-1.2,0.8-1.3c0,0,0.6-0.7,0.7-1.6c0,0,0-0.7,0.1-0.9c0,0-0.1-2.1-0.6-4.8c0,0-0.5-3.4,0.3-5.5c0,0-0.4-1.2-0.1-1.6
			c0,0-0.3-0.1-0.1-1.5l-0.6-0.4c0,0-1.4-0.4-1.7-0.8c0,0,0.1-1.5,0.3-1.7c0,0,0-1.8,0.3-2.3l0.1-0.7c0,0,0-1.2,0.1-1.5l0.2-1.5
			l0.1-2c0,0,0.2-2.5,0.3-2.7l-0.1-0.1c0,0-0.2-3.1-0.1-3.4l0.2-2.9c0,0-0.1-3.2,0-3.6c0,0-0.7-2.7-0.6-3.2c0,0-1.2,0.9-2.2,2.3
			l-7.5,3.4c0,0-0.4-0.1-0.7-0.2L155.8,54z"/>
		<g>
			<g>
				<path class="st1" d="M73.6,66.5c0.4,0.1,0.8,0.1,0.9,0.1c0,0,2.6,0.8,3.4,0.4l1.3,0.1c0,0,0.8,0,1.5-0.5l4.3-2
					c0,0,0.6,0.1,0.6,0.5l0.2,0.2c0,0-1,1.7-0.2,4.2c0,0,0,1.3,0.7,1.6l0,0.9l-0.3,0.2c0,0-0.2-0.5-1-0.5c0,0-0.6,0-0.8,0.8
					l-0.3,1.1c0,0-0.5-0.9-1.1,0.2c0,0-0.7,2.8-0.8,10.2l-0.5,0v0.5h0.5c0,0-0.2,6.4,0.8,10.9c0,0,0.4,0.8,1,0.2c0,0,0,2.3,1.6,1.7
					l0.7,1.6c0,0-1.1,1-0.7,2.4c0,0,0.7,1.9,2.9,1.5c0,0,0.3-0.1,0.5-0.2c0,0,0.3,0.5,2.3,0.4l6.6,0c0,0,0.4,0.6,2.4,0.2
					c0,0,1.3-0.1,1.5-0.6c0,0,1.3-0.1,1.7-1.8l0.4,0c0,0,0.9-2.1,1-3.3l0.7,0.3c0,0-1.7,2-0.4,4c0,0,0.4,0.3,1.4,0.3
					c0,0,0.7-0.1,1-0.4l0.9-0.3l-0.3-0.5c0,0,0.8-2.9-1-3.2l-0.2-0.7c0,0,0.7,0.5,1.3-0.2l0-2.9l0.5,1.3c0,0-0.1,0.7,0.5,0.6
					c0,0,0.5,0.2,0.4-1.2c0,0-0.3-12.1-0.4-13.1c0,0-0.4-7.4-0.6-7.9c0,0-0.2-1.1-1-0.2h-0.2l-0.1-1.2l-0.1-0.2c0,0,0.1-0.7-0.9-0.5
					c0,0-0.5,0-0.5,0.5l0,1.5l-0.7-0.5l-0.3-5.8c0,0,0-1.1-1.4-1.1c0,0,0.2-1.7-1.2-1.6l-1-1.5c0,0,1.9,0.7,2.5,0.6
					c0,0,0.6,0.4,1,0.4l1,0.6l0.4-0.4c0,0,1.2,0.8,2.5,0.3c0,0,0.6-0.3,1.1-0.5c0,0,3.3-1.6,4.4-3.1c0,0,0.8-0.5,1.8-1l-1.5-1.9
					c0,0,0,0.5-2.6,1.6c0,0-1,0.3-1.4,0.3c0,0-1.4,0.1-1.8,0.3l-0.5-0.2c0,0-0.2-0.6-0.9-0.5c0,0-1.9-1.5-2.4-1.6l-1.1-1.7l-1.8-1.8
					c0,0-2-0.8-3.3-1.2c0,0-2.5-0.9-2.8-1.1c0,0-0.6-0.1-1-0.3c0,0,1.3-1.1,1.6-2.5c0,0,0.5-1.2,0.3-1.9c0,0,0-1-0.3-1.4
					c0,0,0-0.8-1.7-1.7c0,0-1.3-1.1-3.4-0.4c0,0-2.7,0.6-3.1,3.3c0,0-0.1,0.4-0.3,0.6c0,0-0.2,0.5,0,0.9c0,0-0.1,0.6-0.2,0.9
					c0,0-0.4,0.5-0.1,1.4c0,0,0,0.6,0.2,0.9c0,0-0.7,0.1-1.7,1.8l-0.4,0.7c0,0-3,0.8-4.3,4.2l-0.2,0.7c0,0-2.6,2.6-2.9,3.1l-0.7,0.3
					c0,0-1.8,0.1-2.5,0c0,0,0,0-1.2,0L73.6,66.5z M82.9,80.3l0.4,0L83.1,84l-0.4,0C82.8,84,82.8,80.9,82.9,80.3z M83.2,94.4
					c0,0-0.6-4-0.5-10h0.4c0,0,0.1,7.2,0.2,9.2C83.4,93.7,83.4,94.3,83.2,94.4z M83.2,78.2c0,0-0.2,0.9,0,1.4l-0.2,0
					c0,0,0.1-2.2,0.2-2.8l0.4,0C83.5,76.7,83.4,77.5,83.2,78.2z M83.5,76.2l-0.4,0c0,0,0.1-1.3,0.2-1.7
					C83.4,74.5,83.5,75.9,83.5,76.2z M85.2,83.9l-0.5,0l0-0.5L85.2,83.9z M85.2,87.2c0,0,0.2,0.3,0.3,1l-0.3,0L85.2,87.2z
					 M85.1,84.8l-0.1,1.8l-0.3-0.6l0-1.2L85.1,84.8z M84.7,86.4l0.3,0.4v1.3h-0.3L84.7,86.4z M84.9,88.9l0.1,0.7L84.8,90l0-1.1H84.9
					z M84.8,91l-0.1-0.8l0.3-0.4L84.8,91z M84.9,92.6l0-1.1l0.3-1.7L84.9,92.6z M85.3,89.4l-0.1,0l0-0.4l0.2-0.1L85.3,89.4z
					 M85.5,89.6l0-0.3l-0.1,0l0.1-0.5h0.1l0.1,0.6L85.5,89.6z M85.2,87.1l0-1.9l0.3,0.1l0.2,1.6L85.2,87.1z M88.1,90.6l-0.8-3.4
					c-0.1-0.5-0.3-0.4-0.3-0.4L87,86.3c0.2,0.1,0.5,0.7,0.5,0.7c0,0.3,0.6,1.3,0.6,1.3c-0.1,0.2,0.4,1,0.4,1l0.2,0.9l0.1,0.5
					L88.1,90.6z M90.9,100.2l-0.2,0.1l-0.4,0.4l-0.1,1.2l-0.7,0C90.4,100,89,99,89,99l0.1-1.3c0.2-2.3-0.2-3.4-0.2-3.4
					c0-0.5-0.2-0.8-0.2-0.8l0-0.3l0.9-0.8c0.2,0.1,0.6,1,0.6,1l0.4,1.1c0.2,1.1,1,1.2,1,1.2l0.1,0.5l0,1c-1.2,1.3-0.9,1.8-0.9,1.8
					c0.3,0.4,0.7,0.1,0.7,0.1L90.9,100.2z M91.3,98.8c-0.4,0-0.1-0.8-0.1-0.8c0.3-0.2,0.6-0.6,0.6-0.6L91.3,98.8z M96.4,88.7l0,0.2
					L96,89.3l-0.1,0.1l-1,0c0,0-0.8-0.8-1-0.9l-0.2-0.3c0,0-0.5-2.1-0.8-2.5L92.6,85l4.1-0.1C96.7,84.9,96.3,87,96.4,88.7z
					 M108.5,93.4c0,0-0.5-0.4-0.5-1.4l0.5-0.1L108.5,93.4z M108.3,85.3l0.2,5.8l-0.4,0.1l-0.1-4.2L108.3,85.3z M107.6,73.7l0.4,5.9
					C107.2,79.4,107.6,73.7,107.6,73.7z M106.3,95.4H106v-0.8l0.4,0V95.4z M105.9,94.2l0-0.7l0.4,0v0.7H105.9z M106.1,79.5l0,0.8
					l-0.3,1.2L106.1,79.5z M106.2,80.9l-0.1,1.8l-0.4,0.2L106.2,80.9z M106,85v1.6l-0.4-1.6L106,85z M104.7,90.6l0.1-5.6l0.6,0
					l0.8,5l0,3.2l-0.4,0l0-0.2l-1.3,0L104.7,90.6z M103.3,85h0.1l-0.1,1.4l-0.1-0.1L103.3,85z M101.7,97.2l0.2,1.2l0,1.4l-0.4-0.6
					c0,0,0-0.6-0.5-1l-0.3-0.9l0-0.1H101.7z"/>
			</g>
		</g>
		<g>
			<path class="st0" d="M86.6,49.6c-0.7-0.2-1.2-0.4-1.7-0.8c-0.6-0.5-1.5-1-2.5-1.4c0-0.1-0.2-0.3-0.5-0.4
				c-0.5-0.1-0.9-0.3-1.3-0.5c-0.1-0.1-0.1-0.1-0.2-0.2c-0.1-0.1-0.2-0.1-0.3-0.1c-0.1,0-0.2-0.1-0.2-0.1c-0.1-0.1-0.2-0.1-0.3-0.1
				c-0.1,0-0.2,0-0.3-0.1c-0.1-0.1-0.1-0.1-0.2-0.2c0-0.3-0.2-0.5-0.5-0.6c-0.3-0.1-0.7-0.3-1-0.5c-0.5-0.4-0.8-0.7-1.1-0.7
				c-0.3,0-0.5,0-0.6,0c-1.3-0.3-2.5-0.3-3.6-0.1c-0.1-0.1-0.2-0.2-0.3-0.2c0.1-0.3,0.2-0.6,0.4-0.9c0.2-0.5,0.4-0.9,0.5-1.3
				c0.1-0.1,0.2-0.3,0.2-0.5c0.2,0.1,0.4,0.1,0.6,0c0.2-0.2,0.3-0.3,0.4-0.5c0.1-0.3,0.1-0.4,0.2-0.5c0.1-0.4,0.1-0.6-0.1-0.7
				c0,0,0,0,0.1-0.1c0-0.1,0.1-0.2,0.1-0.3c0-0.1,0-0.2,0-0.3c0-0.1,0-0.2,0.1-0.3c0-0.1,0.1-0.2,0.1-0.3c0.1,0,0.1,0.1,0.2,0.1
				c0-0.1-0.1-0.1-0.1-0.2c0.1,0,0.1,0.1,0.2,0.1c-0.1-0.1-0.2-0.2-0.2-0.2c0-0.1,0-0.2,0-0.3c0-0.1,0-0.2,0-0.3
				c0-0.1,0-0.2-0.1-0.3c0.1,0,0.2,0,0.3,0.1c0,0,0,0,0,0c-0.1-0.1-0.2-0.1-0.3-0.2c0,0,0.1,0,0.1,0c0,0-0.1-0.1-0.1-0.1
				c0.1,0,0.2,0,0.4,0.1c0,0-0.1-0.1-0.1-0.1c-0.1-0.1-0.2-0.1-0.3-0.1c0.1,0,0.2,0,0.4,0c0,0,0,0-0.1,0c-0.1,0-0.2-0.1-0.4-0.1
				c0,0,0.1,0,0.1,0c0.1,0,0.2,0,0.4,0c-0.1,0-0.1,0-0.2,0c-0.1,0-0.2,0-0.4,0c0.1,0,0.2-0.1,0.2-0.1c-0.1,0-0.1,0-0.1-0.1
				c0.1,0,0.1,0,0.2,0c-0.1,0-0.2-0.1-0.3,0c0.1,0,0.1-0.1,0.2-0.1c-0.1,0-0.2,0-0.3,0c0-0.1,0.1-0.1,0.2-0.1c-0.1,0-0.1,0-0.2,0
				c0,0,0,0,0.1-0.1c0.1-0.1,0.1-0.1,0.2-0.2c-0.1,0-0.2,0-0.2,0.1c0,0,0.1-0.1,0.1-0.1c0.1-0.1,0.1-0.1,0.2-0.2
				c-0.1,0-0.2,0.1-0.3,0.1c0-0.1,0.1-0.1,0-0.2c0,0.1-0.1,0.1-0.2,0.1c0,0,0,0,0,0c0,0,0-0.1,0-0.2c0.1-0.1,0.1-0.1,0.2-0.2
				c-0.1,0-0.1,0-0.1,0c0-0.1,0.1-0.1,0.1-0.2C74.1,35,74,35,73.9,35.1c0-0.1,0-0.2,0-0.3c0,0.1,0,0.1-0.1,0.1c0-0.1,0-0.2,0-0.2
				c0,0.1,0,0.1-0.1,0.2c0-0.1,0-0.1,0-0.2c0,0,0-0.1,0-0.1c0,0.1,0,0.1,0,0.1c0,0,0,0.1,0,0.1c0-0.1,0-0.1,0-0.2c0,0,0-0.1,0-0.1
				c0,0,0,0.1,0,0.1c0,0,0-0.1,0-0.1c0,0,0-0.1,0-0.1c0,0.1,0,0.1,0,0.2c0,0,0,0.1,0,0.1c0,0,0-0.1,0-0.1c0,0,0,0.1,0,0.1
				c0,0,0-0.1,0-0.1c0,0,0-0.1,0-0.1c0,0,0,0.1,0,0.1c0,0,0,0,0,0.1c0,0,0-0.1,0-0.1c0,0,0,0.1-0.1,0.1c0,0,0,0.1-0.1,0.1
				c0-0.1,0-0.1,0-0.1c0,0,0,0,0-0.1c0,0-0.1,0-0.1,0c0-0.1,0-0.1,0-0.2c0,0,0-0.1,0-0.1c0,0.1,0,0.1,0,0.2c0,0,0-0.1,0-0.1
				c0,0.1,0,0.1-0.1,0.2c0,0-0.1,0-0.1-0.1c0-0.1-0.2-0.2-0.4-0.3c0-0.1-0.1-0.2-0.2-0.2c0,0,0,0,0,0c0,0,0,0,0,0
				c0.1,0,0.1,0.1,0.1,0.1c-0.1-0.1-0.3-0.1-0.4-0.2c-0.1,0-0.1-0.1-0.1-0.3c0,0-0.1,0-0.1,0.1c0,0,0-0.1,0-0.1c0,0,0,0.1-0.1,0.1
				c0,0,0-0.1,0-0.1c0,0,0,0.1-0.1,0.1c0,0,0-0.1,0-0.1c0,0-0.1,0.1-0.1,0.1c0,0,0-0.1,0-0.1c-0.1,0-0.1,0-0.1,0.1c0,0,0-0.1,0-0.1
				c0,0-0.1,0.1-0.1,0.1c0,0,0,0,0,0c0-0.1,0-0.1,0.1-0.2c0,0-0.1,0.1-0.2,0.1c0,0,0,0,0-0.1c0,0-0.1,0-0.1,0.1c0,0,0-0.1,0-0.1
				c0,0.1-0.1,0.1-0.2,0.1c0,0,0,0,0-0.1c0,0-0.1,0.1-0.1,0.1c0-0.1,0-0.1,0.1-0.2c-0.1,0-0.1,0.1-0.1,0.1c0,0,0-0.1,0-0.1
				c0,0,0,0-0.1,0.1c-0.1,0-0.1,0.1-0.2,0.1c0-0.1,0-0.1,0.1-0.2c0,0,0,0-0.1,0c-0.1,0-0.1,0.1-0.2,0.1c0,0,0-0.1,0-0.1
				c0,0.1-0.1,0.1-0.2,0.1c0-0.1,0-0.1,0-0.2c-0.1,0-0.1,0.1-0.1,0.1c0,0,0-0.1,0-0.1c0,0.1,0,0.1-0.1,0.2c0,0-0.1,0-0.1,0
				c0-0.1,0.1-0.1,0.2-0.1c0,0-0.1,0-0.2,0c0-0.1,0-0.1,0-0.1c-0.1,0-0.1,0.1-0.1,0.1c0,0,0,0.1,0,0.1c0,0-0.1-0.1-0.1-0.2
				c0,0,0,0,0-0.1c0,0,0,0.1,0,0.1c0-0.1,0-0.1-0.1-0.1c0,0.1,0,0.1,0,0.2c0,0-0.1-0.1-0.1-0.1c0,0,0,0.1,0,0.2c0,0,0-0.1,0-0.1
				c0,0.1,0,0.1,0,0.2c0,0.1,0,0.1,0,0.2c0-0.1-0.1-0.1-0.1-0.2c0,0,0,0,0,0c0,0.1,0,0.1,0,0.2c0,0-0.1-0.1-0.1-0.1c0,0,0,0.1,0,0.1
				c-0.1,0-0.1-0.1,0-0.2c0,0,0-0.1,0-0.1c0,0-0.1,0.1-0.1,0.1c0,0,0-0.1,0-0.1c0,0,0,0.1-0.1,0.1c0,0,0-0.1-0.1-0.1
				c0,0.1,0,0.1,0,0.2c0,0,0,0,0,0c0-0.1,0-0.1-0.1-0.2c0,0.1,0,0.1,0,0.2c0-0.1-0.1-0.1-0.1-0.2c0,0.1,0,0.1,0,0.2c0,0,0,0,0,0.1
				c-0.1,0-0.2,0-0.2,0.1c0,0,0,0-0.1,0.1c0,0,0,0,0.1,0c0,0,0,0-0.1,0.1c0.1,0,0.1,0,0.1,0.1c0,0,0,0-0.1,0c-0.1,0-0.1-0.1-0.2-0.1
				c-0.1,0-0.1-0.1-0.2-0.1c0.1,0,0.1,0.1,0.2,0.1c0,0,0,0,0,0.1c-0.1,0-0.2,0-0.2-0.1c0,0,0,0-0.1,0c0,0.1,0.1,0.1,0.1,0.2
				c-0.1,0-0.1,0-0.2-0.1c0,0.1,0,0.1,0.1,0.2c0,0-0.1,0-0.1-0.1c0,0.1,0,0.1,0,0.2c0,0-0.1-0.1-0.1-0.1c-0.1,0-0.1,0-0.2,0
				c0.1,0,0.1,0,0.2,0.1c0,0,0,0,0.1,0.1c-0.1,0-0.1,0-0.2-0.1c0,0,0,0.1,0.1,0.1c-0.1,0-0.1-0.1-0.2-0.1c0,0.1,0,0.1,0.1,0.2
				c0,0,0,0,0,0c-0.1-0.1-0.1-0.1-0.2-0.1c0,0,0,0-0.1,0c0.1,0,0.1,0.1,0.2,0.1c0,0,0.1,0,0.1,0.1c-0.1,0-0.1,0-0.2,0
				c0,0-0.1,0-0.1,0c0.1,0,0.1,0,0.2,0.1c0,0,0,0,0,0.1c-0.1,0-0.1,0-0.2,0c0.1,0,0.1,0,0.2,0.1c-0.1,0-0.1,0-0.2,0.1
				c0.1,0,0.2,0,0.2,0c-0.1,0-0.2,0.1-0.2,0.1c0,0,0.1,0,0.1,0c-0.1,0-0.1,0.1-0.2,0.1c0,0-0.1,0.1-0.1,0.1c0.1,0,0.1-0.1,0.2-0.1
				c0,0,0,0,0,0c-0.1,0-0.1,0.1-0.2,0.1c-0.1,0-0.1,0.1-0.2,0.1c0,0,0.1,0,0.1,0c-0.1,0-0.1,0.1-0.2,0.1c0,0,0,0,0,0
				c0,0,0.1,0,0.2,0c0,0-0.1,0.1-0.1,0.1c0,0,0.1,0,0.1,0c0,0.1-0.1,0.1-0.1,0.2c0,0-0.1,0-0.1,0c0,0,0.1,0,0.1,0
				c-0.1,0-0.1,0.1-0.2,0.1c0,0,0.1,0,0.1,0c-0.1,0.1-0.1,0.1-0.1,0.2c0,0.1-0.1,0.1-0.1,0.2c0,0-0.1,0.1-0.1,0.1c0,0,0,0,0.1,0
				c0,0.1-0.1,0.1-0.1,0.2c0.1,0,0.1,0,0.1-0.1c0,0-0.1,0.1-0.1,0.2c0,0,0,0,0,0c0,0,0.1,0,0.1,0c0,0.1-0.1,0.1-0.1,0.2c0,0,0,0,0,0
				c0,0,0.1,0,0.1,0c0,0.1-0.1,0.1-0.1,0.1c0,0,0.1,0,0.1,0c0,0.1,0,0.3,0,0.5c0,0.2-0.1,0.4-0.1,0.5c-0.3,0.1-0.4,0.4-0.3,1
				c0,0,0,0.1,0,0.3c0,0.2,0.1,0.3,0.3,0.5C67,40,67.2,40,67.4,40c0.2,0.5,0.1,1.2-0.2,2c-0.3,0-0.5,0.1-0.6,0.2
				c-0.1,0.1-0.3,0.1-0.5-0.2c-0.3-0.3-0.6-0.5-1-0.6c-0.5-0.1-0.8-0.3-1-0.5c-0.3-0.2-0.5-0.3-0.7-0.2c-0.6-0.1-1.2-0.1-1.6-0.1
				c-0.5,0-0.7,0.1-0.8,0.1c-0.4,0-0.8,0-1,0.1c-0.3,0.1-0.5,0.1-0.6,0.1c-0.2,0-0.3,0-0.5,0.1c-0.4,0-0.6,0-0.7,0
				c-0.1-0.1-0.3-0.1-0.6-0.1c-0.3,0-0.7,0-0.9-0.1c-0.3-0.1-0.6,0-0.8,0.1c-1.4-0.1-2.4-0.1-3,0c-0.6,0.1-1.2,0.1-1.7,0
				c-0.6-0.2-1.3-0.4-2.1-0.7c-0.7-0.3-1.7-0.6-2.9-0.9c-1.1-0.3-2.7-0.7-4.5-1.3c0.1-0.3,0-0.6-0.1-0.9c-0.1-0.3-0.3-0.5-0.5-0.6
				c-0.2-0.1-0.3-0.2-0.3-0.3c-0.1-0.2-0.2-0.2-0.4-0.2c-0.2,0-0.4,0.1-0.3,0.2c-0.1-0.1-0.3-0.2-0.5-0.2c-0.2,0-0.4-0.1-0.4-0.2
				c-0.1-0.1-0.2-0.3-0.4-0.3c-0.2-0.1-0.3-0.2-0.3-0.2c-0.2-0.3-0.5-0.5-0.7-0.7c-0.3-0.2-0.5-0.4-0.8-0.7
				c-0.3-0.3-0.5-0.4-0.7-0.3c-0.4-0.4-0.6-0.6-0.8-0.5c-0.2,0.1-0.2,0.2-0.1,0.3c0.1,0.1,0.2,0.2,0.2,0.2c0.1,0.1,0.2,0.2,0.3,0.3
				c-0.5-0.4-0.8-0.5-0.9-0.4c-0.2,0.1-0.1,0.3,0.2,0.6c0.2,0.2,0.5,0.5,0.8,0.8c0.3,0.4,0.8,0.7,1.4,1.1c0.3,0.6,0.6,1,0.9,1.3
				c0.4,0.4,0.7,0.8,1.1,1.2c0.4,0.5,0.9,0.8,1.4,1c0.5,0.2,1.4,0.7,2.5,1.4c1.2,0.7,2.3,1.3,3.4,1.7c1.1,0.4,1.8,0.6,2,0.8
				c0.2,0.1,0.6,0.2,1.2,0.3c0.4,0.1,0.9,0.2,1.3,0.3c0.4,0.1,0.9,0.3,1.6,0.5c0.7,0.2,1.7,0.5,3,1.1c0.1,0.2,0.4,0.4,0.9,0.6
				c0.1,0,0.4,0.1,0.6,0.2c0.2,0.1,0.5,0.1,0.7,0.1c0.2,0,0.4,0.1,0.6,0.3c0.2,0.2,0.3,0.3,0.5,0.3c0.2,0,0.3,0,0.4,0.1
				c0.1,0,0.2,0.1,0.3,0c0,0.8,0.1,1.5,0.3,2c0.1,0.6,0.2,1.2,0.3,1.8c0,0.7,0.1,1.3,0.2,1.6c0.1,0.3,0.1,1,0.1,2c0,1,0,1.8,0,2.3
				c0,0.5,0,1.1-0.2,2c-0.2,0.9-0.4,1.5-0.5,1.8c-0.2,0.3-0.2,0.6,0,0.9c-0.1,0.1-0.2,0.2-0.4,0.5c-0.1,0.3,0,0.5,0.4,0.8
				c0,0.2-0.1,0.4-0.2,0.6c-0.1,0.2-0.1,0.3,0.1,0.4c0,0.1-0.1,0.4-0.3,0.8c-0.1,0-0.2,0.1-0.2,0.3c0,0.1-0.1,0.3-0.3,0.6
				c-0.1,0.3-0.2,0.6-0.2,0.9c-0.5,1.1-0.8,1.8-0.8,2.3c0,0.4-0.1,0.9-0.3,1.4c-0.2,0.7-0.3,1.6-0.4,2.6c0,1.2-0.3,2.5-0.8,3.7
				c-0.5,1.3-0.8,2.3-0.8,3.1c-0.1,1.2,0,2,0.3,2.4c0.4,0.5,0.4,0.9,0.2,1.3c-0.3,0.5-0.4,0.9-0.3,1.2c0.1,0.4,0,1-0.1,1.7
				c-0.2,0.8-0.3,1.8-0.3,3.1c0,1.3-0.2,2.4-0.5,3.4c-0.2,0.8-0.4,1.6-0.4,2.4c0,0.7-0.1,1.3-0.2,1.8c-0.1,0.5-0.1,0.9,0.1,1.1
				c-0.1,0.1-0.2,0.2-0.3,0.4c-0.1,0.2-0.3,0.4-0.5,0.8c-0.1,0.3-0.3,0.6-0.5,1.1c-0.2,0.4-0.3,1.1-0.2,2c0.1,0.9,0.5,1.5,1.4,1.7
				c0.8,0.2,1.5-0.1,2.2-0.8c0.6-0.7,1-1.3,1.2-1.6c0.2-0.4,0.2-0.7,0.2-1c0-0.4,0-0.6,0.1-0.9c0.6-0.2,0.9-0.4,1.1-0.8
				c0.4-0.2,0.8-0.5,1.2-0.8c0.4-0.3,0.6-0.7,0.6-1.2c0.1-0.6,0.2-1.1,0.3-1.5c0.3-1.2,0.4-2.2,0.5-3.1c0.1-1.3,0.2-2.3,0.1-3.1
				c-0.1-0.9,0-1.6,0.3-2.2c0.3-0.7,0.5-1.7,0.5-2.8c1.1-1.4,1.7-2.8,1.8-4.3c0.1-1.5,0.4-2.6,0.7-3.2c0.4-0.7,0.6-1.3,0.8-2
				C66,75,66,75.3,66,75.5c-0.1,0.2,0,0.4,0.1,0.7c0.1,0.2,0.1,0.4,0,0.6c-0.1,0.2-0.1,0.4,0,0.6c0,0.1,0,0.4-0.1,0.7
				c-0.1,0.3-0.2,0.7-0.1,1c0,0.3,0,0.6-0.1,1.1c-0.1,0.4-0.1,0.8,0,1.1c0.1,0.2,0.1,0.4-0.1,0.6c-0.1,0.2-0.2,0.5,0,0.8
				C65,84.4,64.4,86,64,87.3c-0.4,1.3-0.7,2.1-0.9,2.5c-0.3,0.9-0.5,1.6-0.7,2.3c-0.2,0.9-0.3,1.5-0.3,2c-0.1,0.5,0,1,0.1,1.3
				c0,0.3,0.1,0.7,0.5,1.2c0.4,0.6,1.1,1,2.1,1.4c0.7,0.8,1.2,1.4,1.6,2c0.4,0.5,0.9,1,1.4,1.3c0.6,0.4,1.2,0.5,1.7,0.5
				c0.6-0.1,1-0.3,1.2-0.8c0.3-0.5,0.3-1,0.1-1.5c-0.2-0.6-0.6-1.1-1-1.5c-0.5-0.5-0.8-0.8-1-1c-0.1-0.2-0.3-0.3-0.4-0.4
				c0.1,0,0.1-0.3-0.1-0.6c-0.1-0.3,0-0.7,0.1-1.2c0.2-0.5,0-0.8-0.6-1.2c1.8-2.8,2.8-4.4,3.1-5c0.3-0.6,0.5-1,0.7-1.3
				c0.2-0.3,0.3-0.7,0.1-1.1c-0.2-0.5-0.3-0.8-0.2-1.1c0.1-0.3,0-0.6-0.1-0.8c0.4-0.6,0.6-1.4,0.8-2.2c0.1-0.9,0.4-1.7,0.9-2.6
				c0.6-1,1-2.2,1.3-3.6c0.3-1.4,0.5-2.2,0.6-2.3c0.3-0.6,0.5-1.1,0.6-1.7c0.1-0.6,0.2-1,0.2-1.2c0-0.1,0-0.3,0-0.3
				c0-0.2,0.1-0.3,0.1-0.4c0-0.2,0-0.4,0-0.6c0-0.3,0.1-0.6,0-0.9c0-0.3,0-0.6,0-0.7c0-0.2,0-0.4,0-0.5c0-0.5,0-0.7,0-0.7
				c0-0.1,0-0.2-0.1-0.2c-0.1-0.1-0.1-0.2,0-0.3c0-0.1,0-0.2,0-0.3c0-0.1-0.1-0.1-0.1-0.2c0,0,0-0.1,0-0.1c0,0,0-0.1,0-0.1
				c0.1-0.1,0.1-0.4-0.1-0.7c0.3,0,0.4,0,0.4-0.2c0-0.1,0-0.3,0-0.4c0-0.1-0.1-0.2-0.2-0.3c0.1-0.1,0.2-0.4,0.1-0.9
				c-0.1-0.5-0.1-1.1,0-1.8c0-0.8,0-1.6-0.1-2.5c-0.1-1.1,0-2,0.3-2.8c0.4-0.9,0.6-1.7,0.6-2.2c0-0.6,0.1-1.1,0.2-1.3
				c0.2-0.3,0.3-0.6,0.4-0.9c0.5,0.2,0.8,0.3,1.1,0.3c0.3,0,0.6,0,0.8,0.1c0.2,0.1,0.4,0.1,0.4-0.1c0.7,0,1.3,0,2,0
				c0.6,0,1.1,0.1,1.7,0.2c0.3,0.1,0.7,0.2,1,0.3c0.2,0,0.5,0.1,0.9,0.3c0.4,0.1,1,0.3,1.8,0.5c0,0,1.1,0,0.9-0.7
				c-0.3-1.4-0.4-1.3-0.2-2.2L87,49.6L86.6,49.6z"/>
		</g>
		<path class="st0" d="M129.6,65.3"/>
		<g>
			<path class="st0" d="M113.2,99.4c0.1-0.2,0.8-0.3,1.2,0c0,0.4,0.1,1.1,0.1,1.1c0.1,0,0.1,0.1,0.1,0.1c0,0.2,0,0.5,0,0.5
				c-0.2,0.2-0.5,0.3-0.8,0.3c-0.3,0-0.6,0-0.9-0.1c0-0.2,0-0.4,0-0.5c0-0.1,0.2-0.2,0.2-0.2C113.1,100.2,113.2,99.4,113.2,99.4z"/>
			<path class="st0" d="M138.7,58.5c0-0.2-0.1-0.4-0.1-0.7c-0.2-0.7-0.6-2.7-0.7-3.5c-0.1-0.8-0.7-3.3-0.8-3.9
				c-0.1-0.6-0.4-1.1-0.6-1.5c-0.2-0.4-0.5-1.1-0.8-1.5c-0.3-0.4-0.8-0.9-1.1-1.2c-0.3-0.3-0.8-0.9-1.1-1.2c-0.3-0.3-0.6-0.6-1-1
				c-0.3-0.5-0.5-0.6-0.8-0.7c0-0.1,0.2-0.4,0.4-0.7c0.6,0.1,0.9-0.3,0.9-0.4c0-0.1,0-0.2,0.1-0.5c0.6,0.2,0.6-0.2,0.5-0.4
				c0.2,0,0.3-0.1,0.3-0.4c0-0.2,0-0.2,0-0.4c0-0.2,0-0.1,0.1-0.4c0.1,0,0.2-0.1,0.1-0.3c0.2-0.1,0.1-0.3,0-0.5
				c0.3,0,0.3-0.2,0.2-0.4c0.1,0,0.2-0.1,0.2-0.4c0.2-0.2,0.2-0.3,0.1-0.4c0-0.1,0-0.3,0-0.5c0.1,0,0.2-0.2,0.1-0.4
				c0-0.1-0.4-0.1-0.5-0.1c0,0,0-0.1-0.2-0.2c0-0.1,0.1-0.3-0.2-0.3c0-0.3-0.2-0.2-0.4-0.1c0.1-0.4-0.2-0.5-0.4-0.6
				c0-0.4-0.2-0.4-0.3-0.4c0-0.1-0.2-0.1-0.3-0.2c0-0.2-0.2-0.4-0.4-0.5c-0.2-0.1-0.4-0.1-0.6,0c0,0-0.1-0.1-0.2-0.1
				c0-0.3-0.1-0.3-0.3-0.2c-0.2-0.4-0.8-0.4-1-0.2c0,0,0,0-0.1-0.1c0,0,0.2-0.3,0-0.4c-0.2-0.1-0.4,0.2-0.5,0.4
				c0-0.2-0.4-0.2-0.5-0.1c0-0.2-0.2-0.2-0.3-0.2c-0.1,0,0,0.2,0,0.3c-0.1,0-0.2,0-0.3,0.2c0,0-0.2-0.1-0.3-0.1
				c-0.1,0-0.1,0.2-0.1,0.3c0,0-0.1-0.1-0.3-0.2c-0.2-0.1-0.3,0-0.3,0.1c0,0.1,0,0.1,0,0.2c-0.1-0.1-0.2-0.1-0.4,0
				c0,0-0.4-0.1-0.5,0c-0.1,0.1-0.2,0.2-0.1,0.2c0.1,0,0.1,0,0.2,0c0.1,0,0.4,0,0.1,0.1c-0.3,0.1-0.2,0.3-0.3,0.5
				c-0.1,0-0.4,0.2-0.4,0.4c-0.1,0-0.3,0-0.4,0.1c-0.1,0.1-0.1,0.2-0.1,0.5c0,0-0.1,0.1-0.2,0.3c-0.2,0-0.2,0.2-0.2,0.3
				c0,0.1,0.1,0.1,0.1,0.2c0,0.1,0,0.1-0.2,0.1c-0.1-0.1-0.3,0-0.3,0.2c-0.1,0.2,0,0.3,0.1,0.4c0,0-0.1,0.1-0.1,0.2
				c0,0.1,0,0.3,0.1,0.4c0,0-0.1,0.1-0.2,0.3c-0.1,0.1-0.1,0.2-0.1,0.3c-0.2,0-0.3,0.2-0.3,0.4c0,0.2,0.1,0.3,0.3,0.4
				c0,0-0.2,0.1-0.2,0.3c0,0.1,0,0.3,0.1,0.4c0,0,0,0.2-0.1,0.3c0,0,0.1,0.1,0.3,0.1c0,0,0,0.2,0.2,0.4c0,0-0.1,0.2-0.1,0.3
				c0,0.1,0.2,0.1,0.4,0c0,0.3-0.1,0.8,0,1c0,0-0.3,0.1-0.5,0.2c-0.2,0.1-0.6,0.4-0.8,0.6c-0.2,0.2-0.6,0.5-0.8,0.7
				c-0.2,0-0.9,0.1-1.2-0.1c-0.3-0.1-0.4-0.1-0.7-0.1c-0.3,0-0.4,0.3-0.4,0.5c0,0-0.2,0.1-0.4,0.3c-0.3,0.2-0.3,0.4-0.3,0.6
				c0,0.2-0.3,3.4-0.3,4.3c0,0.9,0.1,4.3,0.1,4.9c0,0.6,0,1.3,0.1,1.8c0.1,0.5,0.3,2,0.3,3.7c0,1.6-0.1,3.6-0.2,5.3
				c0,0.7-0.2,2.7-0.4,3.9c-0.1,0.4-0.1,0.8-0.3,1.3c-0.2,0.5-0.4,1.6-0.4,2.2c-0.1,0.6-0.1,1.6-0.1,2c0,0.5-0.1,2.2-0.1,2.5
				c0,0.3,0,1.2,0.1,1.6c0.1,0.4,0.2,1.1,0.2,1.4c0,0.3,0.1,0.8,0.3,1.2c0.1,0.4,0.3,1.2,0.4,1.9c0,0.7,0.2,1.2,0.3,1.4
				c0,0.2,0,0.6,0.1,1.1c0.1,0.6,0.2,1.3,0.4,1.9c0,0.4,0.2,1.3,0.2,1.5c0.1,0.2,0.3,0.7,0.3,0.9c0.1,0.3,0.2,0.7,0.3,0.9
				c0,0,0.1,0.1,0.1,0.1c0,0,0.2,1,0.3,1.4c0.1,0.5,0.2,1.3,0.2,1.7c0,0.4,0,1.2-0.1,1.5c0,0.3-0.1,0.2,0,0.9c0,0,0,0.1-0.1,0.2
				c0,0.1-0.1,0.2-0.2,0.3c-0.1,0.1-0.2,0.3-0.3,0.5c-0.1,0.1-0.2,0.6-0.2,0.7c0,0.1-0.1,0.3-0.3,0.4c-0.1,0.1-0.1,0.3-0.1,0.5
				c0,0.2,0,0.4,0,0.5c0,0.1-0.3,0.6-0.4,0.8c-0.1,0.2-0.2,0.3-0.2,0.5c0,0.2,0,0.1,0.2,0.2c-0.1,0.4,0,0.8,0.1,0.9
				c0,0.1,0.1,0.2,0.3,0.3c0.2,0,0.9,0.1,1.6,0c0.7,0,1.3-0.1,1.7-0.4c0.3-0.3,0.4-0.7,0.4-1.2c0-0.5,0.1-0.7,0.2-1.1
				c0,0,0.1,0,0.3-0.2c0.2-0.1,0.2-0.2,0.4-0.5c0.2-0.3,0.3-0.6,0.3-0.9c0-0.2-0.1-0.6-0.2-1c0-0.4,0-0.4-0.3-0.6
				c-0.2-0.5-0.4-0.6-0.6-0.9c0,0-0.4-0.8-0.4-1c0-0.3-0.1-0.6-0.1-1c0-0.5,0-1.4,0-1.6c0,0,0.3-0.2,0.6-0.3
				c0.2-0.1,0.3-0.3,0.5-0.6c0-0.2,0-0.8-0.1-1.3c0-0.2,0.1-0.6,0.1-0.9c0-0.3,0.1-1.3,0.3-1.9c0.2-0.5,0.4-1.4,0.5-2
				c0.1-0.6,0.2-2,0.2-2.4c0-0.4,0-1,0-1.6c0,0,0.1,0.4,0.2,0.6c0,0.2,0.1,0.7,0,1.2c-0.1,0.5,0,1.5,0,2c0,0.5,0,2,0.1,2.7
				c0,0.6,0.1,2.2,0.1,2.5c0.1,0,0.2,0,0.3,0.1c0,0,0,1.9,0,2.6c0,0.6-0.1,1.7-0.1,2.1c0,0.4-0.1,1-0.1,1.5l-0.1,0
				c0,0-0.1,0.3-0.2,0.6c0,0.3-0.1,0.2,0,0.5c-0.1,0.3-0.2,0.8-0.1,1c0,0-0.1,0.1-0.3,0.2c-0.1,0.1,0,0.2,0,0.3
				c0,0.1,0.1,0.3,0.1,0.4c0,0.2,0.1,0.4,0.2,0.8c0.2,0.1,0.9,0.1,1.3,0.1c0.4,0,1.2-0.1,1.8-0.3c0.1-0.4,0.4-0.3,0.6-0.3
				c0.2,0,0.7,0,1.1-0.1c0.4-0.1,0.7-0.3,0.8-0.4c0.2-0.2,0.2-0.2,0.2-0.4c0-0.1,0-0.3,0-0.4c0-0.1,0-0.2-0.3-0.3c0,0,0.1,0,0-0.1
				c0-0.1,0-0.2-0.2-0.2c-0.1,0-0.2,0-0.5,0c-0.2-0.1-0.3-0.1-0.4-0.2c-0.1,0-0.2-0.1-0.4-0.3c-0.2-0.2-0.6-0.5-0.6-0.6
				c-0.1-0.2-0.2-0.2-0.3,0c0,0-0.2-0.2-0.3-0.5c-0.1-0.3-0.2-0.9-0.3-1.2c0-0.3,0-1.6,0.1-2.1c0.1-0.5,0.3-1.8,0.4-2.2
				c0,0,0.9,0.3,1.2,0.4c0.3,0.1,1.2,0.1,1.5,0c0.3-0.1,0.5-0.3,0.8-0.7c0,0,0.1-2.2,0.1-2.9c0-0.7,0.3-4,0.4-5.3
				c0.1-1.3,0.3-3.5,0.4-5.7c0.1-2.3-0.1-3.3-0.2-4.2c0,0,0.1-0.1,0.1-0.2c0.1-0.2,0.1-0.5,0.2-0.7c0.1-0.2,0.1-0.6,0.1-1
				c0-0.4,0.1-0.4,0.1-1.6c0-1.2,0-1,0-1.6c0-0.6,0-1.4,0.1-1.9c0.1-0.5,0-1.5,0-2.1c0-0.6,0.1-0.9,0.2-1.1c0.1-0.2,0.4-0.6,0.5-0.9
				c0.1-0.2,0.1-0.4,0.1-0.9c0,0,0.2,0.6,0.3,1c0.1,0.3,1.7,2.1,2.9,2.1l3.7-1.2l-0.7-3.7L138.7,58.5z"/>
			<path class="st0" d="M120.1,44.9c-0.3,0.4-0.8,1.1-1,1.4c-0.2,0.3-0.5,0.9-0.6,1.1c-0.3,0.4-0.9,1.6-1.2,2.1
				c-0.2,0.5-0.5,1.3-0.7,1.6c-0.1,0.3-0.6,1-0.8,1.3c-0.2,0.3-0.3,0.6-0.7,1.4c-0.4,0.6-0.5,0.8-0.7,1.1c-0.2,0.3-0.5,0.8-0.7,1.2
				c-0.2,0.3-0.5,1-0.5,1.4c-0.2,0.1-0.3,0.1-0.3,0.2c0,0.3-0.2,1-0.3,1.4c-0.1,0.4-0.2,0.5-0.2,0.7c0.1,0.2,0.4,0.4,0.7,0.5
				c0,0.4-0.1,0.9-0.2,1.1c0,0.3-0.1,0.4-0.1,0.4c0-0.1-0.2-0.2-0.3,0c-0.1,0.1-0.2,0.5-0.3,0.7c0,0.1,0,0.4,0.1,0.5
				c0.1,0.1,0.1,0,0.1,0c0,0.2,0,0.4,0,0.5c0,0.1,0,0.4,0,0.4c0,0.2-0.3,0.6-0.4,0.8c-0.1,0.3-0.3,0.7-0.4,1.1
				c-0.1,0.4,0,0.5,0.1,0.7c0.1,0.1,0.2,0.2,0.3,0.2c0,0.1,0,0.3,0.2,0.5c0.2,0.2,0.3,0.3,0.5,0.3c0.3,0.1,0.3,0.2,0.3,0.2
				c0.2,0.2,0.3,0.2,0.4,0.2c0.2,0,0.3-0.2,0.5-0.2c0.2,0,0.7-0.1,0.8-0.1c0.1,0.1,0.2,0.1,0.2,0.1c0.4,0,0.1-0.8,0.1-1.1
				c0-0.5-0.2-0.9-0.1-1.2c0-0.2,0-0.6-0.1-0.9c-0.2-0.6-0.3-0.6-0.4-0.8c-0.1-0.2-0.1-0.5-0.1-0.5c0.2-0.1,0.2-0.2,0.2-0.4
				c0-0.2,0-0.3,0-0.3c-0.1-0.1-0.1-0.1-0.1-0.1c0.1-0.2,0.2-0.4,0.3-0.6c0.1-0.2,0.4-1,0.4-1c0.1,0.1,0.3,0.1,0.3,0.1
				c0.2-0.1,1.3-0.8,1.4-0.9c0.1-0.1,0.3-0.5,0.2-0.7c0-0.2-0.1-0.2-0.1-0.2c0.2-0.3,0.3-0.5,0.4-0.6c0.1-0.1,0.5-0.5,0.6-0.6
				c0.1-0.2,0.5-0.4,0.7-0.9c0.2-0.5,0.3-0.7,0.4-1c0.1-0.2,0.2-0.4,0.2-0.5c0-0.1,0.1-0.3,0.2-0.3c0-0.7,0-5.7,0.1-6.2
				c0-0.5,0.2-2.3,0.2-2.8C120.2,45.6,120.1,44.9,120.1,44.9z"/>
			<g>
				<path class="st0" d="M118.7,58.7c-0.1-0.5-0.2-1.1,0-1.2c0.1-0.2,0.4-0.7,0.5-1c0.1-0.2,0.3-0.6,0.4-0.7c0.1-0.2,0-0.5,0.1-0.8
					c0.1-0.3,0.2-0.6,0.2-0.7c0-0.1,0-0.4,0-0.5c0-0.1,0-0.4,0-0.4c-0.2,0.1-0.4,0.1-0.5,0.2c-0.1,0.1-0.2,0.2-0.2,0.2
					c0,0.2,0,0.2,0,0.2c0,0.1,0,0.2,0,0.3c-0.1,0.5-0.2,0.6-0.2,1.1c0,0.5,0,0.8-0.1,1.1c-0.1,0.3-0.2,0.7-0.3,0.9
					c-0.1,0.2-0.4,0.8-0.5,0.9c-0.1,0.1-0.1,0.1-0.2,0.2c-0.1,0.1-0.3,0.4-0.3,0.6c0,0.2-0.3,0.6-0.1,0.8c0.5-0.2,0.9-0.5,1.1-0.6
					C118.5,59,118.7,58.7,118.7,58.7z"/>
				<g>
					<path class="st0" d="M120.7,54.2c0.1,0,0.2,0,0.3,0c0.1,0,0.3,0,0.4,0c0.1,0,0.2,0.1,0.2,0c0.1-0.1,0.2-0.6,0.2-0.8
						c0-0.2,0-0.6,0-0.6c0.1-0.6,0.3-1.9,0.4-2.4c0-0.4,0.3-1.9,0.4-2.3c0.1-0.4,0.2-1.8,0.2-2.4c0.1-0.6,0.3-1.9,0.3-1.9
						c-0.2-0.1-0.3,0-0.5-0.1c-0.2,0-0.4,0-0.5-0.1c-0.1,0-0.2,0.1-0.2,0.2c0,0.1-0.1,1-0.2,1.6c-0.1,0.6-0.2,1.9-0.3,2.3
						c0,0.4-0.2,1.6-0.2,2.1c0,0.5-0.2,2-0.2,2.3c0,0.3-0.1,0.6-0.1,0.6c0,0.2-0.1,0.5-0.1,0.6C120.7,53.8,120.7,54.2,120.7,54.2z"
						/>
					<path class="st0" d="M120.7,53.7c-0.1,0.1-0.4,0.2-0.4,0.6c0,0.4,0.2,0.5,0.3,0.6c0.1-0.1,0.1-0.2,0.1-0.2
						c-0.2-0.1-0.2-0.5,0-0.6C120.7,53.9,120.7,53.7,120.7,53.7z"/>
					<path class="st0" d="M121.5,54.2c0.1,0.1,0.2,0.4-0.2,0.6c0,0.1,0,0.3,0,0.3c0.2-0.1,0.4-0.3,0.4-0.5c0-0.3,0-0.5-0.2-0.6
						C121.6,54.1,121.5,54.2,121.5,54.2z"/>
					<path class="st0" d="M120.5,55c0-0.1,0.1-0.2,0.1-0.3c0,0,0.2-0.2,0.2-0.2c0.1,0,0.5,0.1,0.6,0.1c0.1,0.1,0.1,0.2,0.1,0.2
						c0,0.1,0,0.3,0,0.3c0,0.1,0,1.1,0,1.4c0,0.5,0.3,1.4,0.4,2.1c0,0.6,0.2,1.6,0.2,1.6c0.4,0.5,0.5,1.3,0.6,1.8
						c0,0.5,0.1,1.1,0.1,1.7c0,0.5-0.1,1.5-0.2,1.9c-0.1,0.4-0.4,1-0.4,1c-0.3,0.7-0.5,1.3-0.7,1.6c-0.2,0.2-0.7,0.6-0.7,0.6
						c-0.7,0.6-1.3,0.4-1.4,0.4c-1.2,0-2.4-0.3-2.9-0.5c-0.8-0.1-1.1-0.5-1.3-0.9c-0.2-0.4-0.3-3-0.3-3.6c0-0.6,0-1.9,0-2.2
						c0-0.3,0.1-0.6,0.3-0.9c0.1-0.2,1.2-1,1.7-1.2c0.5-0.2,1.3-0.8,1.5-1c0.2-0.3,0.5-1,0.7-1.2s0.6-0.9,0.8-1.3
						c0.2-0.4,0.4-0.5,0.3-0.7C120.2,55.4,120.5,55,120.5,55z"/>
				</g>
				<path class="st0" d="M114.5,65.6c-0.2-0.1-0.3-0.2-0.4-0.5c-0.4-0.3-0.5-0.4-0.8-0.4c-0.4,0-0.9,0.3-0.8,0.9
					c0.1,0.3,0.2,0.4,0.4,0.6c0.1,0.1,0.1,0.4,0.1,0.4c-0.1,0.1-0.2,0.1-0.2,0.1c0.1,0.2,0.2,0.3,0.4,0.3c0-0.3,0.2-0.5,0.3-0.6
					c0.1-0.1,0.5-0.1,0.5-0.1c0.1-0.1,0.2-0.3,0.3-0.4C114.3,65.7,114.5,65.6,114.5,65.6z"/>
				<path class="st0" d="M113.2,66.7c0.1,0.5,0.1,1,0,1.3c-0.1,0.4-0.2,1.3-0.2,1.6c0,0.3-0.2,0.8-0.2,1.1c0,0.3,0,0.9,0.1,1.5
					c0,0.6,0.1,0.7,0.2,1.1c0.1,0.4,0.2,1.3,0.2,1.3c-0.1,0.1-0.2,0.1-0.2,0.1c-0.2-0.6-0.3-1.2-0.4-1.6c-0.1-0.4-0.1-0.7-0.2-1
					c-0.1-0.2-0.1-0.8-0.1-1.1c0-0.4,0.3-1,0.3-1.3c0-0.3,0-1,0.1-1.4c0-0.4,0.1-0.9,0.1-1.2c0-0.2,0.1-0.4,0.1-0.4L113.2,66.7z"/>
				<path class="st0" d="M114.1,67.5c0,0.4,0.2,1.3,0.1,2.2c-0.1,0.9-0.3,2-0.4,2.5c-0.1,0.5-0.2,1.6-0.3,1.9c0,0.3,0,2.2,0,2.8
					c0,0.7-0.1,10.9-0.1,11.6c0,0.7,0,3.7,0,3.7c-0.1,0.2-0.1,0.5-0.1,0.6c0,0.2,0.1,0.4,0.1,0.4c0,0.3,0,6.3,0,6.3
					c0.3,0,0.7,0,0.7,0c0-0.7,0.1-6.4,0.1-6.4c0.1-0.2,0.1-0.3,0.1-0.6c0-0.3-0.1-0.5-0.1-0.5c0-0.7,0-11.2,0-12.1c0-0.9,0-5,0-5.4
					c0-0.4,0.4-2.9,0.5-3.5c0.1-0.6,0.2-1.4,0.2-2c0-0.6-0.1-1.7-0.1-1.7c-0.2-0.2-0.4-0.5-0.4-0.5
					C114.4,67.4,114.1,67.5,114.1,67.5z"/>
			</g>
		</g>
		<g>
			<path class="st0" d="M147.7,17.5c0-0.2-0.2-0.4-0.7-0.5c-0.4-0.1-0.8-0.1-1.2,0.1c-0.4,0.2-0.7,0.3-1.1,0.4
				c-0.2,0-0.3-0.1-0.3-0.3c0-0.1-0.1-0.3-0.1-0.4c-0.1-0.2-0.1-0.3-0.1-0.3c-0.1-0.6-0.1-1.1,0-1.5c0.1-0.4,0.2-0.8,0.2-1.2
				c0-0.5,0-0.9,0-0.9c0.1-0.6-0.1-1-0.4-1.1c-0.3-0.1-0.5,0-0.5,0.2c0,0.2,0,0.5,0,0.7c0,0.2,0,0.5-0.2,0.9c-0.1,0.3-0.2,0.6-0.2,1
				c0,0.3-0.2,0.4-0.4,0.5c-0.2,0-0.3-0.1-0.3-0.4c0-0.3,0-0.7-0.1-1.3c-0.1-0.5-0.1-1.1-0.1-1.6c0-0.5-0.2-0.7-0.5-0.7
				c-0.3,0-0.5,0.2-0.5,0.7c0,0,0,0.1,0,0.4c0,0.1,0,0.3,0,0.5c0,0.2,0,0.4-0.1,0.8c0,0.3,0,0.6,0.1,1c0.1,0.3,0.1,0.6,0.1,0.7
				c0,0.1-0.1,0.2-0.2,0.2c-0.1,0-0.2-0.1-0.2-0.4c0-0.2-0.2-0.6-0.4-1.1c-0.2-0.5-0.4-1-0.6-1.5c-0.1-0.5-0.4-0.6-0.7-0.5
				c-0.3,0.1-0.4,0.4-0.2,0.8c0.1,0.4,0.2,0.8,0.3,1.4c0.1,0.5,0.2,0.9,0.3,1.3c0.2,0.3,0.2,0.6,0,0.6c-0.1,0.1-0.3,0.1-0.4,0
				c-0.1-0.1-0.3-0.2-0.5-0.4c-0.5-0.3-0.8-0.7-1-1c-0.2-0.3-0.4-0.4-0.6-0.3c-0.2,0.2-0.3,0.4-0.1,0.7c0.1,0.3,0.4,0.5,0.7,0.8
				c0.2,0.3,0.5,0.5,0.8,0.9c0.3,0.3,0.4,0.5,0.4,0.8c0,0,0,0.3,0.1,0.9c0,0.6,0.2,1,0.4,1.3c0.2,0.3,0.3,0.6,0.3,0.7
				c0,0.1,0,0.3,0,0.6c0,0.2-0.2,0.6-0.5,1.3c-0.3,0.7-0.6,2-1,4c-0.3,1.6-0.5,2.6-0.6,3c-0.1,0.4-0.1,0.9-0.1,1.3
				c0,0.3,0,0.6,0,1.1c0,0.3,0,0.6,0.1,1c0,0.2,0,0.5,0,0.9c0,0.2,0,0.5,0.1,0.9c0.1,0.3,0.1,0.9,0.1,1.8c0,0.9,0.1,1.8,0.3,2.7
				c-0.1,0.5,0,0.9,0.3,1.3c0.3,0.4,0.4,0.8,0.5,1.1c0.1,0.5,0.3,0.9,0.5,1.3c0.2,0.5,0.3,1,0.4,1.5c0,0.6,0,1.2,0.1,1.9
				c0.1,0.7,0.1,1.1,0.1,1.3c0,1,0.1,1.7,0.1,2c0.1,0.4,0.1,0.7,0.1,0.9c-0.1,1.3,0,2.3,0.2,3.1c0.2,1.1,0.4,1.8,0.4,2.2
				c0,0.5,0,1.1-0.2,1.8c-0.1,0.6-0.1,1.2,0.1,1.8c0,0.2-0.1,0.3-0.3,0.5c-0.1,0.1-0.1,0.3,0.1,0.3c0.2,0.1,0.3,0.2,0.2,0.4
				c-0.4,0.1-0.6,0.3-0.5,0.7c0.1,0.3,0.2,0.6,0.1,1c0,0.3,0,0.5,0.2,0.6c0,0.4-0.1,0.7-0.3,0.9c-0.2,0.2-0.3,0.6-0.3,1.1
				c0,0.6-0.1,1.2-0.2,1.8c-0.1,0.6-0.2,1.2-0.2,1.8c0,0.8,0,1.2-0.1,1.3c-0.2,1-0.2,2,0,2.8c0.2,0.8,0.4,1.3,0.4,1.4
				c0.1,0.6,0.2,1.3,0.2,2.1c0,1,0.1,1.8,0.2,2.5c0.2,0.7,0.4,1.2,0.8,1.5c0.4,0.3,0.4,0.7,0.1,1.1c-0.4,0.5-0.5,1-0.5,1.5
				c0,0.5,0,1-0.2,1.5c-0.2,0.7-0.2,1.7,0.1,2.8c0.3,1.3,0.4,2.5,0.3,3.4c-0.1,1-0.1,1.7,0.1,2.3c0.2,0.7,0.2,1.5,0,2.5
				c-0.3,1,0,1.8,0.7,2.2c-0.4,0.9-0.5,1.8-0.3,2.6c0.1,0.9,0.5,1.6,1.1,2.2c0.6,0.7,1.4,1,2.2,1c1,0,1.5-0.3,1.7-0.8
				c0.2-0.6,0.3-1.2,0.3-1.8c0-0.7-0.1-1.2-0.3-1.6c-0.2-0.4-0.3-0.8-0.4-1.2c0.4-0.5,0.5-0.9,0.5-1.2c0,0,0,0,0-0.1
				c0.1-0.2,0.1-0.6,0.1-1.2c0-0.7-0.1-1.4-0.1-1.9c-0.1-0.6,0-1.2,0.1-1.6c0.2-0.6,0.3-1.5,0.5-2.9c0.2-1.7,0.3-2.6,0.3-2.8
				c0-0.5,0-0.9,0.1-1c0.2-0.7,0.2-1.2,0.1-1.6c-0.1-0.5-0.2-0.8-0.1-1.1c0.1-0.4,0.2-0.6,0.2-0.7c0.2-0.4,0.3-0.8,0.4-1.2
				c0-0.6,0.2-1,0.3-1.3c0.2-0.4,0.3-0.6,0.3-0.8c0-0.2,0-0.4,0-0.5c0-0.4,0-0.9,0-1.4c0-0.8,0.1-1.6,0.5-2.4
				c0.5,1.6,0.7,2.8,0.5,3.7c-0.2,0.9-0.2,1.5,0,2c0.1,0.3,0.1,0.6,0,0.9c-0.1,0.2-0.1,0.4-0.1,0.7c0,0.1-0.1,0.2-0.2,0.4
				c-0.1,0.2-0.2,0.4-0.2,0.6c0,0.1-0.1,0.2-0.2,0.5c-0.1,0.2-0.1,0.4-0.2,0.8c0,0.1-0.2,0.7-0.5,1.8c-0.3,1-0.5,2.1-0.6,3.4
				c0,0.1-0.2,0.5-0.4,1.2c-0.2,0.6-0.3,1.2-0.4,1.9c0,0.7-0.1,1.2-0.2,1.7c-0.1,0.2-0.1,0.5,0.1,0.8c0.1,0.3,0.2,0.6,0.3,1
				c0.1,0.4,0.6,0.9,1.4,1.4c0.3,0.7,0.4,1.3,0.3,2c0,0.7,0.1,1.3,0.5,1.9c0.4,0.7,1,1.1,1.7,1.3c0.7,0.2,1.3,0.2,1.8,0
				c0.5-0.2,0.8-0.7,0.9-1.3c0.1-0.8,0-1.4-0.3-1.9c-0.3-0.5-0.4-0.9-0.5-1.2c0-0.3-0.2-0.5-0.4-0.6c0.2-0.5,0.3-0.7,0.4-0.8
				c0.1-0.4,0.1-0.6,0.2-0.8c0.5-1,0.8-1.9,1.2-2.7c0.4-1,0.6-1.6,0.7-1.7c0.8-1.8,1.2-3,1.2-3.4c0-0.5,0-0.9-0.1-1.3
				c-0.1-0.5,0-0.9,0.2-1.3c0.3-0.5,0.5-0.8,0.5-0.9c0.3-0.5,0.3-0.9,0.3-1.3c-0.1-0.4-0.1-0.7-0.1-0.8c0-0.3-0.1-0.5-0.2-0.7
				c-0.1-0.3-0.2-0.7-0.3-1.1c0.6-2.3,1-4.2,1.1-5.6c0.1-1.5,0.2-2.5,0.3-3c0.2-1.8,0.3-2.8,0.3-2.8c0.1-1.3,0-2.2-0.1-2.6
				c-0.1-0.4-0.2-0.8-0.4-1.2c0.1-0.3,0.1-0.6-0.1-0.7c0-0.2,0-0.4-0.1-0.5c-0.1-0.1-0.1-0.2-0.1-0.3c0.1-0.1,0-0.2,0-0.3
				c-0.1-0.1-0.1-0.2-0.1-0.3c0-0.1,0-0.2-0.1-0.3c-0.1-0.1-0.2-0.2-0.2-0.4c0.1-0.2,0.1-0.4,0-0.7c-0.1-0.4-0.2-0.6-0.1-0.8
				c0-0.2-0.1-0.3-0.2-0.4c0,0,0,0,0,0c0-0.1-0.1-0.1-0.2-0.2c1-0.1,1.4-0.2,1.5-0.3c0-0.1,0-0.2-0.1-0.3c-0.1-0.1-0.1-0.3-0.1-0.4
				c0.2-0.2,0.2-0.6,0.1-1.2c-0.1-0.6-0.1-1.5,0-2.5c0.2-1.5,0.2-2.5-0.1-3.1c-0.3-0.6-0.3-1.3,0-2c0.4-1,0.5-2.1,0.3-3.2
				c0.3-0.6,0.5-1.2,0.5-1.9c0-0.6,0.2-1.2,0.7-1.9c0.7-0.9,1.4-1.8,1.9-2.8c0.4-0.8,0.6-1.3,0.6-1.6c0,0,0,0,0,0
				c0.2-0.6,0.3-1.2,0.4-1.8c0-0.7,0.2-1.3,0.4-2c0.3-0.8,0.4-1.3,0.5-1.5c0-0.3,0.1-0.6,0.1-0.8c0.1-0.3,0.1-0.6,0.2-1.1
				c0-0.5,0.1-1.1,0.2-1.8c0.1-0.7,0.2-1.4,0.2-1.9c0.1-0.9,0-1.8-0.2-2.6c-0.2-0.9-0.2-1.5-0.1-1.7c0.2-0.3,0.3-0.5,0.4-0.6
				c0.1-0.2,0.2-0.4,0.2-0.5c0.2-0.5,0.4-0.9,0.4-1.2c0.1-0.4,0.1-0.7,0.1-0.9c0-0.2,0.1-0.5,0.1-0.7c0.3-0.3,0.6-0.7,0.8-1
				c0.2-0.4,0.3-0.6,0.4-0.6c0.1-0.2,0.1-0.4-0.1-0.5c-0.2-0.1-0.4-0.1-0.5,0.2c-0.1,0.2-0.3,0.4-0.5,0.6c-0.2,0.2-0.5,0.4-0.7,0.7
				c-0.4-0.2-0.6-0.4-0.5-0.7c0.1-0.3,0.1-0.6,0.2-0.9c0-0.3,0.1-0.6,0.1-0.9c0.1-0.4,0.1-0.7,0.1-0.9c0-0.3-0.1-0.4-0.4-0.4
				c-0.3,0-0.4,0.1-0.4,0.4c0,0.3-0.1,0.6-0.3,1.1c-0.2,0.4-0.3,0.9-0.4,1.4c-0.1,0-0.1-0.2-0.1-0.6c0.1-0.3,0.1-0.7,0.1-1.1
				c0-0.5,0-0.7,0.1-0.8c0.1-0.3,0.1-0.4,0.1-0.4c0.1-0.5-0.1-0.7-0.4-0.7c-0.3,0-0.5,0.2-0.5,0.4c0,0.3-0.1,0.7-0.2,1.2
				c-0.1,0.4-0.2,0.7-0.2,1c0,0.3,0,0.6-0.1,0.8c0-0.2-0.1-0.3-0.1-0.4c-0.1-0.2-0.2-0.4-0.2-0.5c-0.1-0.3-0.1-0.5-0.2-0.8
				c-0.1-0.4-0.2-0.7-0.2-1c0-0.3-0.2-0.5-0.5-0.4c-0.3,0.1-0.5,0.3-0.4,0.8c0,0.4,0.1,0.7,0.1,1.1c0,0.3,0.1,0.8,0.2,1.4
				c0,0.1,0,0.3,0,0.5c0,0.1,0,0.3,0,0.5c0,0.2-0.1,0.4-0.2,0.6c-0.5-0.6-1.1-0.7-1.8-0.5c-0.7,0.2-1,0.5-0.9,0.7
				c0.1,0.2,0.4,0.3,0.7,0.2c0.3-0.1,0.6-0.1,0.9,0.1c0.3,0.2,0.5,0.5,0.7,1c0.2,0.6,0.4,1.1,0.5,1.3c0.2,0.5,0.2,1,0.1,1.4
				c-0.1,0.6-0.2,1.3-0.2,2.2c0,0.9-0.2,1.9-0.6,2.9c-0.5,1.1-0.6,2-0.5,2.9c0.1,1,0,1.6-0.4,1.7c-0.5,0.2-0.8,0.5-1,0.8
				c-0.2,0.3-0.5,1.1-1.1,2.4c-0.1,0-0.2,0.1-0.2,0.2c0,0,0,0.1-0.1,0.1c-0.1,0.1-0.2,0.1-0.3,0.2c-0.1,0-0.2,0.1-0.2,0.2
				c-0.1,0.1-0.1,0.2-0.2,0.2c-0.1,0.1-0.1,0.1-0.2,0.2c-0.1,0-0.2,0.1-0.3,0.1c-0.1,0-0.1,0.1-0.2,0.1c0,0-0.1,0-0.1,0.1
				c-0.1,0-0.2,0-0.3,0.1c0,0,0,0-0.1,0.1c-0.1,0-0.1,0.1-0.2,0.2c-0.1,0.1-0.1,0.1-0.2,0.2c0,0.1-0.1,0.1-0.2,0.1
				c0,0-0.1,0-0.1,0.1c-0.1,0.1-0.1,0.1-0.2,0.2c0,0.1-0.1,0.1-0.2,0.1c0.1-0.3,0.2-0.6,0.2-0.9c0,0,0,0,0.1-0.1
				c0.1-0.1,0.1-0.2,0.1-0.3c0-0.1,0-0.2,0-0.3c0-0.1,0.1-0.2,0.2-0.2c0.1-0.1,0.1-0.2,0.2-0.3c0.4,0,0.6-0.1,0.7-0.3
				c0.1-0.2,0.1-0.4,0.1-0.5c0-0.2,0-0.3,0-0.3c0-0.2,0-0.3-0.1-0.5c0-0.1,0-0.1,0-0.2c0-0.1,0-0.1,0-0.2c0,0,0.1,0,0.1,0
				c0-0.1-0.1-0.1-0.1-0.2c0,0,0.1,0,0.1,0c0,0,0-0.1-0.1-0.1c-0.1-0.1-0.1-0.1-0.1-0.2c0,0,0.1,0,0.1,0.1c0,0,0-0.1-0.1-0.1
				c0.1,0,0.1,0.1,0.2,0.1c0-0.1-0.1-0.1-0.1-0.2c0.1,0,0.1,0,0.2,0c0,0-0.1,0-0.1,0c-0.1,0-0.1-0.1-0.2-0.1c0,0,0.1,0,0.1,0
				c0-0.1-0.1-0.1-0.1-0.2c0.1,0,0.1,0,0.2,0c-0.1,0-0.1-0.1-0.1-0.1c0,0,0.1,0,0.1,0c-0.1,0-0.1-0.1-0.1-0.1c0,0,0.1,0,0.1,0.1
				c0,0,0,0,0-0.1c0-0.1-0.1-0.1-0.2-0.2c0.1,0,0.1,0,0.2,0.1c0,0,0,0,0-0.1c-0.1,0-0.1-0.1-0.2-0.1c0.1,0,0.2,0,0.2,0.1
				c-0.1,0-0.1-0.1-0.2-0.2c0.1,0.1,0.2,0.1,0.2,0.1c0,0,0-0.1-0.1-0.1c0-0.1-0.1-0.1-0.2-0.1c0.1,0,0.1,0,0.2,0c0,0-0.1,0-0.1,0
				c-0.1,0-0.1-0.1-0.2-0.2c0.1,0,0.1,0.1,0.2,0.1c0,0,0,0,0,0c0-0.1-0.1-0.1-0.1-0.2c-0.1,0-0.1-0.1-0.2-0.1c0.1,0,0.1,0,0.2,0
				c-0.1,0-0.1-0.1-0.2-0.1c0.1,0,0.2,0,0.2,0c0,0-0.1,0-0.2-0.1c-0.1,0-0.2,0-0.2,0c0-0.1,0-0.1,0.1-0.2c0-0.1,0.1-0.1,0-0.2
				c0,0-0.1,0.1-0.1,0.1c0,0,0-0.1,0-0.1c0,0.1-0.1,0.1-0.1,0.2c0-0.1,0-0.1,0-0.2c-0.1,0-0.1,0.1-0.1,0.1c0-0.1,0-0.1,0-0.2
				c0-0.1,0.1-0.2,0.1-0.2c-0.1,0-0.1,0.1-0.2,0.1c0-0.1,0-0.1,0.1-0.2c-0.1,0.1-0.1,0.1-0.2,0.2c0,0,0-0.1,0-0.1
				c0-0.1,0.1-0.2,0.1-0.3c-0.1,0.1-0.1,0.1-0.2,0.1c0-0.1,0.1-0.1,0.1-0.2c-0.1,0-0.1,0.1-0.2,0.1c0,0,0-0.1,0-0.1
				c-0.1,0.1-0.1,0.1-0.1,0.2c0-0.1,0-0.2,0-0.3c0,0,0,0.1-0.1,0.1c0-0.1,0-0.1,0-0.2c-0.1,0-0.1,0.1-0.1,0.1c0-0.1,0-0.2-0.1-0.2
				c0,0,0,0.1,0,0.1c-0.1-0.1-0.1-0.1-0.2-0.2c0,0,0,0.1,0,0.1c-0.1,0-0.1-0.1-0.1-0.2c0,0,0,0,0,0.1c0-0.1,0-0.1,0-0.2
				c0,0-0.1,0-0.1,0.1c0-0.1,0-0.1,0.1-0.2c-0.1,0-0.1,0-0.1,0.1c0-0.1,0-0.1,0-0.2c0,0,0,0,0,0.1c0-0.1-0.1-0.1-0.1-0.1
				c0,0,0,0.1,0,0.1c-0.1,0-0.1-0.1-0.2-0.2c0,0,0,0,0,0.1c-0.1,0-0.2-0.1-0.2-0.2c0,0,0,0.1,0,0.1c-0.1,0-0.1-0.1-0.1-0.2
				c0,0,0,0,0,0.1c0,0-0.1-0.1-0.1-0.2c0,0,0,0.1,0,0.1c0,0-0.1-0.1-0.1-0.1c0,0,0,0.1,0,0.1c-0.1-0.1-0.1-0.2-0.1-0.2
				c-0.1,0-0.1,0.1-0.1,0.1c0,0,0-0.1,0-0.1c-0.1,0-0.1,0-0.1,0.1c0,0,0-0.1,0-0.1c0,0-0.1,0.1-0.1,0.1c0,0,0-0.1,0-0.1
				c-0.1,0-0.1,0.1-0.2,0.1c0,0,0-0.1,0-0.1c-0.1,0-0.1,0-0.2,0c0,0,0-0.1,0.1-0.1c-0.1,0-0.1,0-0.2,0c0,0,0.1,0,0.2-0.1
				c-0.1,0-0.2,0-0.4,0c0,0,0.1-0.1,0.1-0.1c-0.1,0-0.2,0.1-0.3,0.1c0,0,0-0.1,0.1-0.1c-0.1,0-0.2,0.1-0.3,0.1c0,0,0-0.1,0-0.1
				c-0.1,0-0.2,0-0.2,0.1c0,0,0,0-0.1,0c0,0,0,0,0,0c0,0-0.1,0-0.1,0c0,0,0,0,0,0.1c-0.1,0-0.1-0.1-0.2-0.1c0,0,0,0.1,0,0.1
				c0,0,0,0,0,0c-0.1,0-0.1,0-0.1-0.1c0,0,0,0.1,0,0.1c-0.1,0-0.1-0.1-0.2-0.1c0,0,0,0.1,0.1,0.1c-0.1,0-0.2,0-0.2-0.1c0,0,0,0,0,0
				c-0.1,0-0.2,0-0.3,0c0,0,0.1,0,0.1,0.1c0,0-0.1,0-0.1-0.1c0,0,0,0,0.1,0.1c0,0,0,0,0,0c-0.1,0-0.1,0-0.2,0c0,0,0.1,0.1,0.1,0.1
				c0,0-0.1,0-0.2,0c0,0,0,0,0,0c0.1,0,0.1,0.1,0.1,0.1c-0.1,0-0.2-0.1-0.3-0.1c-0.1,0-0.1,0-0.2,0c0.1,0,0.2,0.1,0.4,0.2l-0.3,0
				c0.1,0.1,0.2,0.1,0.3,0.1c-0.1,0-0.2,0.1-0.4,0.1c0.1,0,0.2,0.1,0.2,0c-0.1,0.1-0.2,0.1-0.3,0.1c0.1,0,0.1,0,0.1,0
				c-0.1,0-0.2,0-0.2,0c0.1,0,0.1,0,0.2,0.1c-0.1,0-0.2,0-0.3,0c0,0,0.1,0,0.1,0.1c-0.1,0-0.2,0-0.2,0c0,0,0,0.1,0.1,0.1
				c0,0-0.1-0.1-0.1-0.1c0,0.1-0.1,0.1-0.1,0.2c0,0-0.1-0.1-0.1-0.1c0,0.1,0,0.1,0,0.2c0,0-0.1-0.1-0.2-0.1c0,0.1,0.1,0.2,0,0.2
				c-0.1,0-0.1-0.1-0.1-0.1c0,0.1,0.1,0.2,0.1,0.2c-0.1,0-0.1-0.1-0.2-0.1c0,0.1,0,0.1,0.1,0.2c0,0-0.1-0.1-0.2-0.2
				c0,0.1,0,0.2,0,0.3c0,0-0.1,0-0.1,0c0,0.1,0,0.1,0,0.1c-0.1,0-0.1,0-0.1-0.1c0.1,0.1,0.1,0.2,0,0.2c0,0,0-0.1-0.1-0.1
				c0,0.1,0,0.2,0,0.2c0,0,0-0.1-0.1-0.1c-0.1,0.1-0.1,0.2-0.1,0.3c0,0-0.1-0.1-0.1-0.1c0,0.1,0,0.1,0,0.2c0,0-0.1,0-0.1,0
				c0,0,0,0.1,0.1,0.1c0,0-0.1,0-0.1,0c0,0,0,0.1,0.1,0.1c-0.1,0-0.1,0.1-0.1,0.1c0,0,0,0,0.1,0c0,0.1-0.1,0.1-0.2,0.1
				c0,0,0.1,0,0.1,0c-0.1,0.1-0.1,0.1-0.2,0.2c0,0,0.1,0,0.1,0c-0.1,0.1-0.1,0.1-0.2,0.2c0,0,0.1,0,0.1,0c0,0-0.1,0.1-0.1,0.1
				c0,0,0.1,0,0.1,0c-0.1,0.1-0.1,0.1-0.2,0.1c0,0,0.1,0,0.1,0c-0.1,0-0.1,0.1-0.2,0.2c0,0,0.1,0,0.1-0.1c-0.1,0.1-0.1,0.2-0.1,0.2
				c0,0,0.1-0.1,0.1-0.1c0,0.1-0.1,0.1-0.1,0.2c0,0,0,0,0,0.1c0,0,0.1-0.1,0.1-0.1c0,0.1,0,0.1-0.1,0.2c0,0,0.1,0,0.1-0.1
				c0,0.1-0.1,0.1-0.1,0.2c0,0,0.1-0.1,0.1-0.1c0,0.1-0.1,0.2-0.1,0.3c0,0,0.1-0.1,0.1-0.1c0,0.1,0,0.2-0.1,0.2c0,0,0,0,0,0.1
				c0,0,0.1-0.1,0.1-0.1c0,0-0.1,0.1-0.1,0.2c0,0,0.1-0.1,0.1-0.1c0,0.1-0.1,0.1-0.1,0.2c0,0,0,0,0.1,0c-0.1,0-0.1,0.1-0.1,0.1
				c0,0.1,0,0.2,0,0.3c0,0.2,0,0.4,0,0.6c0,0.2,0,0.5,0.2,0.6c0.1,0.3,0.3,0.3,0.6,0.1c0,0.2,0.1,0.4,0.3,0.5c0.1,0.3,0,0.6-0.1,0.8
				c0-0.1-0.1-0.2-0.1-0.2c-0.1-0.1-0.1-0.1-0.2-0.1c-0.1,0-0.2-0.1-0.2-0.2c0-0.1-0.1-0.1-0.2-0.2c-0.1-0.1-0.2-0.1-0.2,0
				c-0.1-0.1-0.2-0.1-0.2-0.2c0,0-0.1,0-0.1,0c-0.1,0-0.1-0.1-0.2-0.2c0-0.1-0.1-0.2-0.2-0.2c-0.1-0.1-0.1-0.1-0.2-0.2
				c-0.1-0.1-0.1-0.1-0.2-0.2c0-0.1-0.1-0.2-0.2-0.2c-0.1,0-0.2-0.1-0.3-0.1c-0.1,0-0.1-0.1-0.2-0.1c0,0-0.1-0.1-0.1-0.1
				c0-0.1-0.1-0.1-0.1-0.2c-0.3-1.9-0.8-3.1-1.4-3.6c-0.6-0.5-0.7-1.3-0.2-2.6c0.4-1.1,0.5-2.6,0.4-4.5c-0.1-1.7,0-3,0.4-3.8
				c0.3-0.7,0.8-1.3,1.3-1.7c0.4-0.3,0.8-0.7,1.2-1.2c0.3-0.4,0.8-0.7,1.4-0.7C147.4,17.9,147.6,17.7,147.7,17.5z"/>
		</g>
		<g>
			<path class="st0" d="M199,97.8c0.3,0.2,0.4,0.5,0.4,0.5c0,0.6-0.2,1.2-0.2,1.2c-0.7,0.5-1.6,0.6-2.4,0.4
				c-0.7-0.2-1.2-0.1-1.6-0.3c-0.3-0.1-0.6-0.4-0.6-0.4c0-0.6,0.1-1.1,0.1-1.1c0.2-0.3,0.3-0.4,0.6-0.5c0.4-0.5,0.8-1.4,1.2-1.4
				c-0.2,0.6-0.3,1.1-0.3,1.4C197.5,97.5,199,97.8,199,97.8z"/>
			<path class="st0" d="M205.9,97.7c0.8,0,2.7,0,2.7,0c-0.3,0.3-0.4,0.3-0.4,0.3C207.1,98,205.9,97.7,205.9,97.7z"/>
			<path class="st0" d="M208.1,63.6c-1.1,0.5-5.7,0.8-7.5,0.7c0.4,1.8,0.3,3.1-0.3,5c-0.6,2,0,4.7,0.6,6.8c-0.2,2.2,0.5,3.1,0.5,3.1
				c0.8,1.2,0.3,2.9,0.6,3.4c-0.1,1.4,0.5,2.8,1,4.2c0.5,1.3,0.9,2.3,1,3.6c-0.2,1.3-0.5,2.7,1.2,3c1.7,0.2,2.4-0.9,2.7-2.8
				c0.5-2.4,0.8-6.4,0.9-8.3c0.2-2-0.5-7.6-0.5-9c0-2,1-3.1,0.7-5.3C208.7,65.7,208.1,63.6,208.1,63.6z"/>
			<path class="st0" d="M191.7,63.5c-0.1,2.5,0,6.7,0.2,8.8c0.2,2.1,1,5.9,1,5.9c0.4,2.9,1.7,12.5,1.7,13.2c0,0.7,0.2,1.4,0.2,1.4
				c1,0.3,2.4,0.4,2.4,0.4c0.1,0.9,0.2,1.1,0.2,1.5c1.3,0,1.8,0.1,2-2.5c0.2-2.6,0.8-7.4,0.6-9.1c0.2-2.9,0.3-5.1,0.5-6.4
				c-0.4-2.4-0.7-4.2-0.2-5.8c0.5-1.6,1.6-4,0.5-6.7C197.7,64,191.7,63.5,191.7,63.5z"/>
			<path class="st0" d="M196.5,92.7c0,0.8-0.1,1.4-0.2,1.9c-0.1,0.5,0,1.5,0,1.5c-0.2,0.4-0.6,1.1-0.3,1.9c0.9,0,2.5,0,3.1,0
				c0.2-0.7,0-1.2-0.1-1.8c-0.1-0.8,0-1.6-0.1-2.2c-0.8,0.2-1.1,0.2-1.1,0.2c-0.2-0.9-0.3-1.5-0.3-1.5L196.5,92.7z"/>
			<path class="st0" d="M206.4,54.2c0.3,1,1.1,1.4,1.6,2.1c0.3,1.1,0.9,3,1.2,3.8c0.3,0.7,0.4,2.1,0.5,2.5c0.1,0.4,0.2,1.4,0.2,1.4
				c-0.1,0.4-0.5,1.6-0.6,2.1c-0.1,0.4-0.2,0.9,0,1.5c0.2,0.4,0.2,0.8,0.5,0.9c0.5,0.1,0.9,0,0.9,0c0.1,0.3,0.2,0.6,0.6,0.7
				c0.2,0.3,1.1,0.2,1.2,0c0.2-0.2,0.2-0.6,0.2-0.6c0.3-0.1,0.4-0.4,0.5-0.9c0.1-0.6,0-1.4-0.1-1.7c-0.1-0.3-0.6-1.3-0.6-1.6
				c-0.1-0.4,0-0.9-0.1-1.2c0-0.3-0.3-1-0.3-1c-0.2-0.9-0.3-2.3-0.3-3.2c0-0.9-0.4-2.5-0.6-3.2c-0.3-0.7-0.5-1.7-0.6-2.1
				c-0.1-0.4-0.4-0.9-0.4-0.9C209.1,53.6,206.4,54.2,206.4,54.2z"/>
			<path class="st0" d="M192.9,54c-0.3,1-0.5,1.6-1.1,2.3c-0.3,1.1-0.9,3-1.1,3.8c-0.2,0.7-0.4,2.1-0.4,2.5
				c-0.1,0.4-0.2,1.4-0.2,1.4c0.1,0.4,0.5,1.6,0.6,2.1c0.1,0.4,0.2,0.9,0,1.5c-0.2,0.4-0.2,0.8-0.5,0.9c-0.4,0.1-0.8,0-0.8,0
				c-0.1,0.3-0.2,0.6-0.6,0.7c-0.2,0.3-1,0.2-1.2,0c-0.1-0.2-0.2-0.6-0.2-0.6c-0.3-0.1-0.4-0.4-0.5-0.9c-0.1-0.6,0-1.4,0.1-1.7
				c0.1-0.3,0.5-1.3,0.6-1.6c0.1-0.4,0-0.9,0.1-1.2c0-0.3,0.3-1,0.3-1c0.2-0.9,0.3-2.3,0.3-3.2c0-0.9,0.4-2.5,0.6-3.2
				c0.2-0.7,0.4-1.7,0.5-2.1c0.1-0.4,0.4-0.9,0.4-0.9C190.9,53.6,192.9,54,192.9,54z"/>
			<path class="st0" d="M196.6,41.5c-0.4,0.3-0.7,0.6-1.4,0.9c0.7,0.5,2.1,0.8,3.8,0.8c1.6,0,3.5-0.2,4.5-1
				c-0.6-0.3-1.1-0.7-1.1-0.7C199.7,42,196.6,41.5,196.6,41.5z"/>
			<path class="st0" d="M195.7,42.3c-0.4,0-0.7,0-1,0.2c-0.7,0.3-2.1,0.9-2.5,1c-0.4,0.2-1.2,0.6-1.3,1.1c-0.2,0.5-1.1,2.3-1.3,3.2
				c-0.2,0.9-0.7,3.2-0.7,4c0,0.7,0.2,1.8,0.2,1.8c0,0.2,0,0.4,0,0.5c0.8,0.4,2.9,0.6,3.2,0.6c0.2-0.2,0.2-0.3,0.2-0.3
				c0.1,0.4-0.8,0.8-0.8,1.2c0,0.4-0.6,0.5-0.2,1.6c-0.3,0.5,0.3,1.7,0,3.3c-0.3,1.6-0.1,2.4-0.2,3.1c0.6,0.6,2.6,1.1,4.2,1
				c1.6-0.1,8.5,0.2,9.5,0.2c1,0,2.8-0.2,3.4-1.3c-0.1-1.5-0.2-3.1-0.6-3.7c-0.2-0.7-0.3-1.2-0.8-1.5c-0.1-0.8-0.2-1-0.2-1.4
				c0.1-0.4,0.1-0.9-0.5-1.2c0-1,0.1-1.1-0.1-1.5c0.2,0.3,0.4,0.4,0.4,0.4c0.1,0.2,0-0.2,0-0.2c0.6,0,2.9-0.8,3.5-1.3
				c0-0.5-0.2-0.8-0.2-0.8c0-0.6-0.5-1.9-0.6-2.4c-0.1-0.5-0.2-1.9-0.9-2.8c-0.4-1.4-1-2.2-1.1-2.5c-0.1-0.3-0.2-0.5-0.5-0.8
				c-0.5-0.5-0.9-0.8-1.6-1c-0.7-0.2-1.1-0.6-1.4-0.6c-0.4-0.2-0.7-0.1-0.9,0c-0.3,0.1-2.2,0.8-4.1,0.8
				C197.2,43,195.7,42.3,195.7,42.3z"/>
			<path class="st0" d="M192.8,53.9c0.1-1.4,0.5-3.1,0.8-3.9c-0.5,0.9-0.8,1.2-0.8,1.2c-0.4-1-0.9-2.2-0.9-3.2c0-1-0.2-2-0.2-2
				c-0.1,1.2-0.3,2.7,0.2,3.9c0.4,1.3,0.7,2,0.8,2.6C192.5,53.2,192.8,53.9,192.8,53.9z"/>
			<path class="st0" d="M193.4,54.1c0.6-0.3,1.7-0.9,2.1-1.9C194.4,53.1,193.4,54.1,193.4,54.1z"/>
			<path class="st0" d="M193.7,57.7c0.8,0,1.9,0.4,3.1,0.4c1.3-0.1,3.1-0.9,3.1-0.9c-2.1,0.1-3.9,0.1-4.6,0.2
				C194.6,57.4,193.7,57.7,193.7,57.7z"/>
			<path class="st0" d="M203.4,57.3c-1.2,0.3-2.6,1.1-2.6,1.1c1.4-0.5,3.5-1,4.1-1c0.6,0,2,0.7,2,0.7
				C206.8,57.7,206.2,56.5,203.4,57.3z"/>
			<path class="st0" d="M206.3,53.2c-0.1-0.7-0.2-2.5,0.2-3c0.3-0.6,0.8-2.2,0.6-3.1c-0.2-0.9-0.6-1.4-0.6-1.4
				c-0.3,1.5-0.5,3.7-0.5,4.6c-0.5-0.9-1.1-3.2-1.1-3.2c0.2,2.1,0.5,4.6,0.8,5.4c-1.5-1.2-2.5-3.4-2.5-3.4c0.6,2.3,1.9,3.4,2.2,3.8
				C205.8,53.2,206.3,53.2,206.3,53.2z"/>
			<path class="st0" d="M205,90.9c0.1,0.6,0.1,1.1-0.1,1.7c-0.2,0.6,0,1.3,0.1,1.6c0,0.5,0.3,1.1,0.4,1.7c0.4-0.8,1.4-1.1,2.3-1
				c0.1-1.2,0-1.7,0-1.7c0-0.4,0-1.1,0-1.5c0-0.4,0-0.8,0-0.8C206.5,89.2,205,90.9,205,90.9z"/>
			<path class="st0" d="M206.9,94.6c-0.9,0-1.7,0.3-1.6,1.9c0.1,1.5-0.1,2.4-0.2,2.7c-0.1,0.4,0,0.9,0,0.9c-0.1,0.7,0,1.1,0.3,1.4
				c0.7,0.1,2.4,0,3-0.1c0.6-0.1,1.1-0.4,1.1-1.3c0-0.9-0.3-1.6-0.4-2c0-1.1-0.2-2.1-0.2-2.1C208.6,95.4,208.3,94.5,206.9,94.6z"/>
			<path class="st0" d="M197.7,31.1c-1,0.3-1.8,1.5-2.3,3.2c-0.5,1.7-1.2,3.5-1.2,4.3c0,0.8,0.6,2.3,1.5,2.6c1,0.9,2.3,1,3.3,0.9
				c1.1,0.2,3.2,0,4-0.7c0.9-0.3,2-2.4,0.7-4.1c-0.7-1.4-0.8-3.9-2-5.2C200.5,30.7,198.7,30.3,197.7,31.1z"/>
			<path class="st0" d="M186.5,104.9l-0.9-0.1l2.3-34.5c-0.1-0.3-0.4-1.4,0.2-2.4c0.5-0.8,1.6-1.3,3.1-1.4l0.5,0v36.9h-0.9V67.4
				c-1,0.1-1.6,0.5-1.9,1c-0.5,0.7-0.1,1.7-0.1,1.7l0,0.1l0,0.1L186.5,104.9z"/>
			<path class="st0" d="M209.8,104.5l-1-35.4l0,0c0,0-0.1-0.9,0.6-1.5c0.7-0.6,1.9-0.8,3.6-0.4l0.3,0.1l0,0.3l3.8,35.7l-0.9,0.1
				L212.5,68c-1.5-0.3-2.2,0-2.5,0.2c-0.4,0.3-0.3,0.8-0.3,0.8l1,35.4L209.8,104.5z"/>
			<g>
				<path class="st0" d="M186.4,104.7c0,1.4-0.4,2.6-0.8,2.6c-0.4,0-0.8-1.2-0.8-2.6c0-1.4,0.4-2.6,0.8-2.6
					C186.1,102.1,186.4,103.2,186.4,104.7z"/>
				<path class="st0" d="M185.6,107.7c-0.9,0-1.2-1.6-1.2-3c0-1.4,0.3-3,1.2-3c0.9,0,1.2,1.6,1.2,3
					C186.8,106.1,186.5,107.7,185.6,107.7z M185.6,102.6c-0.2,0.3-0.4,1-0.4,2.1c0,1.1,0.2,1.8,0.4,2.1c0.2-0.3,0.4-1,0.4-2.1
					C186,103.6,185.8,102.8,185.6,102.6z"/>
			</g>
			<g>
				<path class="st0" d="M212.7,104.7c0,1.4-0.6,2.6-1.2,2.6c-0.7,0-1.2-1.2-1.2-2.6c0-1.4,0.6-2.6,1.2-2.6
					C212.1,102.1,212.7,103.2,212.7,104.7z"/>
				<path class="st0" d="M211.4,107.7c-0.9,0-1.7-1.3-1.7-3c0-1.7,0.7-3,1.7-3c0.9,0,1.7,1.3,1.7,3
					C213.1,106.4,212.4,107.7,211.4,107.7z M211.4,102.5c-0.3,0-0.8,0.9-0.8,2.2c0,1.3,0.5,2.2,0.8,2.2c0.3,0,0.8-0.9,0.8-2.2
					C212.2,103.4,211.7,102.5,211.4,102.5z"/>
			</g>
			<g>
				<path class="st0" d="M191.6,102.8c0,0.7-0.3,1.2-0.6,1.2c-0.3,0-0.6-0.5-0.6-1.2c0-0.7,0.3-1.2,0.6-1.2
					C191.3,101.5,191.6,102.1,191.6,102.8z"/>
				<path class="st0" d="M191,104.4c-0.6,0-1-0.7-1-1.6c0-0.9,0.4-1.6,1-1.6c0.6,0,1,0.7,1,1.6C192,103.7,191.6,104.4,191,104.4z
					 M191,102c-0.1,0.1-0.2,0.4-0.2,0.8s0.1,0.6,0.2,0.8c0.1-0.1,0.2-0.4,0.2-0.8S191,102.1,191,102z"/>
			</g>
			<g>
				<path class="st0" d="M217.8,102.8c0,0.7-0.3,1.2-0.6,1.2c-0.3,0-0.6-0.5-0.6-1.2c0-0.7,0.3-1.2,0.6-1.2
					C217.5,101.5,217.8,102.1,217.8,102.8z"/>
				<path class="st0" d="M217.2,104.4c-0.6,0-1-0.7-1-1.6c0-0.9,0.4-1.6,1-1.6c0.6,0,1,0.7,1,1.6
					C218.2,103.7,217.8,104.4,217.2,104.4z M217.2,102c-0.1,0.1-0.2,0.4-0.2,0.8s0.1,0.6,0.2,0.8c0.1-0.1,0.2-0.4,0.2-0.8
					S217.3,102.1,217.2,102z"/>
			</g>
			<rect x="188.7" y="69.7" class="st0" width="20.5" height="0.9"/>
			<rect x="188.3" y="77.1" class="st0" width="21.2" height="0.9"/>
		</g>
		<g>
			<path class="st0" d="M249.2,28c-0.1,0.1-0.2,0.3-0.4,0.6c-0.1,0.2-0.2,0.5-0.3,0.9c-0.1,0.3-0.2,0.8-0.5,1.5
				c-0.1,0.3-0.4,1-0.7,2c-0.4,1-0.7,2-0.9,3.1c-0.1,0-0.2,0.2-0.3,0.4c0,0,0,0.1,0,0.3c0,0.1-0.1,0.3-0.2,0.7
				c0,0.1-0.1,0.3-0.1,0.5c0,0.3-0.2,0.7-0.3,1.3c-0.1,0.4-0.2,0.9-0.3,1.4c-0.1,0.5-0.3,1-0.8,1.7c0,0.1-0.2,0.3-0.5,0.8
				c-0.3,0.4-0.5,1-0.7,1.6c0,0-0.1,0.2-0.3,0.4c-0.1,0.2-0.3,0.6-0.5,1.1c0,0.1-0.2,0.4-0.6,0.8c-0.3,0.4-0.7,1.1-1,1.9
				c-0.3,0.8-0.7,1.5-0.9,2c-0.2,0.3-0.4,0.6-0.5,0.9c-0.2,0.3-0.5,0.8-1.1,1.6c-0.6,0.8-1,1.4-1.2,1.9c-0.1,0-0.2,0.1-0.3,0.3
				c-0.1,0.2-0.1,0.3-0.3,0.4c-0.1,0.1-0.1,0.2,0,0.4c0,0,0.2,0.2,0.4,0.5c0.2,0.2,0.3,0.4,0.5,0.7c0.1,0.2,0.5,0.5,1.2,0.9
				c-0.2,0.6-0.3,1.4-0.3,2.3c-0.1,0-0.1,0.1,0,0.3c0,0.1,0,0.1,0,0.2c-0.3,0.1-0.4,0.3-0.4,0.6c0,0.1,0,0.3,0,0.5
				c0,0.2,0,0.4,0,0.9c0,0.2,0,0.4,0.1,0.6c0,0.1-0.1,0.2-0.1,0.3c0,0,0,0.1-0.1,0.2c0,0.1-0.1,0.2-0.1,0.3c-0.1,0-0.2,0.1-0.2,0.3
				c0,0.1,0,0.2-0.1,0.5c0,0.1,0,0.3,0,0.5c-0.1,0.1-0.1,0.2-0.1,0.5c0,0.2,0,0.5,0,1c-0.1,0.4,0,0.8,0.1,1.4
				c0.1,0.4,0.1,1.2,0.2,2.5c0.1,1.1,0.3,2.9,0.7,5.5c0.3,2,0.7,3.3,1.1,3.9c0.3,0.4,0.6,1.2,0.7,2.2c0,0.2,0.1,0.6,0.3,1.1
				c0.1,0.3,0.1,0.7,0.1,1.1c0,0.3,0.1,0.6,0.2,0.9c0.1,0.2,0.1,0.5,0.1,1.1c0,0.4,0.3,1.1,0.7,1.9c0.1,0.3,0.3,0.9,0.4,1.9
				c0.1,0.7,0.4,1.5,0.8,2.3c0.2,0.4,0.1,1-0.2,2c-0.3,1-0.2,1.6,0.2,1.8c-0.1,0-0.1,0.1,0,0.2c0.1,0.1,0.1,0.2,0.1,0.3
				c0,0.1,0.1,0.1,0.2,0.1c-0.4,0.8-0.6,1.6-0.5,2.5c0.1,0.8,0.3,1.5,0.7,2.1c0.4,0.6,1.1,0.9,2,0.9c0.8,0,1.4-0.1,1.6-0.4
				c0.2-0.3,0.4-0.7,0.5-1.4c0.1-0.6,0.1-1.1-0.1-1.4c-0.2-0.3-0.2-1.1,0-2.2c0.2,0,0.3-0.2,0.4-0.4c0-0.2,0.1-0.4,0.1-0.4
				c0.1-0.2,0.1-0.3,0.1-0.5c0,0.2,0.1,0.3,0.2,0.5c0.1,0.1,0.1,0.5,0.1,1.1c0,0.6,0.3,1.1,0.8,1.2c0.3,0.4,0.7,0.6,1,0.6
				c0.2,0.4,0.4,0.9,0.6,1.5c0.1,0.5,0.5,1.2,1.1,1.8c0.6,0.7,1.4,1,2.3,0.8c0.8-0.1,1.3-0.4,1.4-1c0.1-0.5,0.1-1,0.1-1.5
				c-0.1-0.4-0.2-0.8-0.3-1c-0.2-0.2-0.3-0.5-0.5-0.8c-0.1-0.2-0.3-0.4-0.4-0.5c-0.2-0.2-0.3-0.3-0.4-0.6c0.1-0.1,0.1-0.1,0-0.2
				c-0.1-0.1-0.1-0.2-0.1-0.3c0-0.1,0-0.2-0.1-0.3c-0.1-0.3-0.2-0.6-0.2-0.9c0-0.3-0.1-0.6-0.3-0.8c0.2-1,0.4-2.1,0.6-3.4
				c0.2-1.3,0.3-2.1,0.4-2.2c0.5-1.2,0.8-1.9,0.9-2.1c0.4-0.9,0.3-1.7-0.4-2.4c-0.2-0.1-0.2-0.3-0.2-0.5c0-0.2,0-0.4,0-0.5
				c0-0.2,0-0.3,0-0.4c0-0.2,0-0.4,0-0.6c-0.1-0.2-0.1-0.4-0.1-0.5c0.1-0.2,0.1-0.4,0.1-0.6c0-0.2,0-0.3,0.1-0.4
				c0.2-0.3,0.2-0.6,0.1-1.1c0-0.4,0-0.7,0-0.9c0-0.2,0.1-0.5,0.1-0.7c0-0.4,0.1-0.7,0.1-1c0.2-1.2,0.3-2.4,0.2-3.6c0-0.5,0-0.9,0-1
				c-0.1-0.9-0.1-1.7-0.1-2.6c0-1,0-1.8-0.1-2.6c-0.1-0.9-0.3-1.6-0.5-2.2c0-0.3-0.1-0.5-0.2-0.5c0.1-0.3,0-0.5,0-0.7
				c-0.1-0.2-0.1-0.3-0.1-0.4c0-0.1,0-0.2-0.1-0.3c-0.1-0.1-0.1-0.2-0.1-0.2c0-0.1,0-0.2-0.1-0.3c-0.1-0.1-0.1-0.2-0.1-0.3
				c0-0.2,0-0.4-0.1-0.6c0.1,0,0.1-0.2,0-0.6c0.2-0.2,0.3-0.4,0.2-0.5c-0.1-0.2-0.1-0.3-0.1-0.5c0-0.2-0.1-0.4-0.2-0.5
				c0.3-0.2,0.4-0.6,0.4-1c0-0.4,0-0.7,0.1-0.7c0.1-0.1,0.1-0.2,0.2-0.4c0.1-0.7,0.2-1.1,0.2-1.2c0.2-0.1,0.3-0.3,0.4-0.5
				c0.1-0.3,0.3-0.6,0.7-1c0.4-0.4,0.6-0.8,0.6-1c0-0.3,0.1-0.5,0.1-0.5c0.5-0.3,1-0.7,1.5-1.5c0.3-0.5,0.8-0.5,1.4-0.3
				c0.6,0.3,1.2,0.4,1.8,0.4c0.7,0,1.2,0.1,1.4,0.2c0.3,0.1,0.7,0.1,1,0c1.5,0.1,3,0.1,4.6-0.1c0.5-0.1,1.2-0.1,2,0
				c0.4,0,0.9,0,1.5,0c0.5,0,1.3,0.1,2.2,0.2c0.8,0.1,1.9,0.2,3.6,0.2c1.5,0,3.1-0.2,4.6-0.5c1.4-0.3,2.5-0.4,3.3-0.1
				c0.7,0.2,1.4,0.3,2.1,0.1c0.6-0.1,1.2-0.1,1.9,0.2c0.6,0.2,1.1,0.3,1.5,0.3c0.4,0,0.6-0.1,0.6-0.2c0-0.2-0.1-0.4-0.6-0.4
				c-0.4-0.1-0.8-0.1-1-0.3c-0.3-0.1-0.4-0.2-0.6-0.3c-0.2-0.1-0.3-0.2-0.2-0.3c0-0.1,0.2-0.1,0.4-0.1c0.2,0,0.5,0,1,0
				c0.5,0,1,0,1.7,0c0.6,0,0.9-0.1,0.9-0.3c0-0.2-0.1-0.3-0.4-0.3c0,0-0.2,0-0.6,0c-0.3,0-0.7,0-1.2-0.1c-0.4-0.1-0.8-0.1-1.1,0
				c-0.3,0-0.4,0-0.4-0.2c0-0.1,0.1-0.2,0.4-0.2c0.3,0,0.7,0,1.1-0.1c0.4-0.1,1-0.1,1.6-0.1c0.6,0,0.9-0.1,0.8-0.4
				c-0.1-0.2-0.3-0.3-0.6-0.3c-0.1,0-0.3,0-0.8,0c-0.3,0-0.7,0-1,0c-0.3,0-0.7,0-1,0.1c-0.4,0.1-0.6,0.1-0.6-0.1
				c0-0.2,0.1-0.3,0.5-0.4c0.3-0.1,0.5-0.2,0.6-0.2c0.4-0.1,0.7-0.2,0.9-0.3c0.2-0.1,0.5-0.1,0.7-0.2c0.3-0.1,0.4-0.2,0.3-0.4
				c0-0.2-0.3-0.2-0.6-0.2c0,0-0.2,0-0.5,0.1c-0.2,0-0.4,0.1-0.7,0.1c-0.2,0-0.6,0.1-1,0.2c-0.1,0-0.2,0.1-0.5,0.2
				c-0.2,0.1-0.4,0.1-0.7,0.1c-0.2,0-0.5,0.1-0.8,0.1c-0.3,0.1-0.3,0,0-0.3c0,0,0.1-0.1,0.3-0.2c0.2-0.1,0.2-0.4,0.3-0.8
				c0-0.3-0.1-0.5-0.3-0.6c-0.2-0.1-0.4,0-0.4,0.2c0,0.1,0,0.2,0,0.3c0,0.1-0.1,0.2-0.1,0.3c-0.1,0.1-0.3,0.2-0.5,0.3
				c-0.2,0.1-0.5,0.1-0.8,0.2c-0.3,0-0.5,0.2-0.7,0.4c-0.1,0.2-0.4,0.4-0.7,0.7c-0.3,0.2-0.6,0.3-1,0.4c-0.1,0-0.8,0.1-2,0.1
				c-1.2,0.1-2.3,0-3.4-0.2c-0.8-0.2-1.8-0.3-2.8-0.3c-1,0-1.9,0-3,0c-1,0.1-1.8,0-2.2-0.2c-0.3-0.1-0.6-0.3-1-0.4
				c-0.4-0.1-1.2-0.3-2.5-0.5c-0.1-0.2-0.3-0.3-0.6-0.3c-0.4,0-0.7-0.1-0.9-0.2c-0.3-0.1-0.4-0.2-0.5-0.2c-0.1-0.1-0.2-0.2-0.4-0.2
				c0-0.2-0.1-0.3-0.2-0.3c-0.1,0-0.2,0-0.4,0c0-0.2-0.1-0.3-0.3-0.2c-0.1,0-0.1,0-0.2-0.1c-0.1,0-0.1-0.1-0.2-0.1
				c-0.1,0-0.1,0-0.1-0.1c0,0,0-0.1-0.1-0.1c-0.1-0.1-0.3-0.1-0.5-0.1c-0.1,0-0.1,0-0.1-0.1c-0.1-0.1-0.2-0.2-0.3-0.3
				c-0.1,0-0.2,0-0.2,0c-0.1-0.1-0.2-0.2-0.4-0.2c-0.2,0-0.3,0-0.5-0.1c-0.1,0-0.1,0-0.2-0.1c-0.1-0.1-0.2-0.1-0.3,0
				c-0.1,0.1-0.2,0.1-0.3,0c0,0-0.1,0-0.1,0c0-0.2-0.1-0.2-0.3-0.2c0,0-0.1,0-0.1,0c-0.1-0.1-0.2-0.2-0.4-0.1c0,0-0.1,0-0.1,0
				c-0.2-0.5-0.4-0.7-0.6-0.7c-0.2,0-0.3-0.1-0.3-0.1c0.4-0.2,0.7-0.6,1-1.1c0.5,0,1-0.3,1.3-0.7c0.4-0.5,0.7-1,0.9-1.3
				c0.3-0.5,0.5-1,0.6-1.6c0.2-0.4,0.3-0.7,0.5-0.9c0.1-0.1,0.2-0.3,0.2-0.5c0.1-0.2,0.1-0.4,0.1-0.4c0,0,0.1,0.1,0.1,0.1
				c0-0.1,0-0.1-0.1-0.2c0,0,0.1,0,0.1,0.1c0,0-0.1-0.1-0.1-0.1c0,0,0,0,0.1,0c0,0-0.1-0.1-0.1-0.1c0-0.1,0-0.2,0-0.2
				c0-0.1,0-0.1-0.1-0.2c0,0,0,0,0.1,0c0,0,0,0,0,0c0-0.1-0.1-0.1-0.1-0.2c0,0,0.1,0,0.1,0.1c0,0-0.1-0.1-0.1-0.1
				c0-0.1-0.1-0.1-0.1-0.3c0,0,0,0,0.1,0.1c0,0,0-0.1-0.1-0.1c0,0,0.1,0,0.1,0c0,0-0.1-0.1-0.1-0.2c-0.1-0.1-0.1-0.2-0.1-0.2
				c0-0.1,0-0.1-0.1-0.2c0,0,0.1,0,0.1,0.1c0,0,0,0,0-0.1c0,0,0.1,0.1,0.1,0.1c0,0,0-0.1,0-0.1c0,0,0.1,0,0.1,0.1
				c0-0.1-0.1-0.2-0.2-0.4c-0.1-0.2-0.3-0.4-0.6-0.8c0-0.1,0-0.1,0-0.1c0,0,0,0.1,0,0.1c0,0,0-0.1,0-0.1c0,0,0,0,0,0
				c0,0,0-0.1,0-0.1c0,0,0,0.1,0,0.1c-0.1-0.1-0.2-0.2-0.2-0.2c0,0,0-0.1,0-0.1c0,0,0,0-0.1,0.1c0,0,0-0.1,0-0.1c0,0,0,0.1-0.1,0.1
				c0,0,0-0.1,0-0.1c0,0-0.1,0-0.1,0.1c0-0.1,0-0.1,0-0.1c0,0-0.1,0.1-0.1,0.1c0,0,0-0.1,0-0.1c0,0-0.1,0.1-0.1,0.1c0,0,0-0.1,0-0.1
				c-0.1,0.1-0.1,0.1-0.1,0c0,0,0,0,0-0.1c0,0,0,0,0,0c0,0-0.1,0-0.1,0.1c0,0,0-0.1,0-0.1c-0.1,0-0.1,0.1-0.2,0.1c0,0,0-0.1,0-0.1
				c0,0-0.1,0-0.1,0c0,0,0,0,0-0.1c0,0-0.1,0-0.1,0c0,0,0-0.1,0-0.1c0,0,0,0-0.1,0.1c0,0,0,0,0-0.1c-0.1,0.1-0.2,0.1-0.3,0
				c0,0,0.1-0.1,0.2-0.1c-0.1,0-0.1,0-0.2,0c0,0,0,0,0.1,0c-0.1,0-0.1,0-0.2,0c0,0,0-0.1,0.1-0.1c-0.1,0-0.2,0-0.2,0.1
				c0,0-0.1,0-0.1,0c0,0,0-0.1,0.1-0.1c-0.1,0-0.1,0-0.1,0.1c0-0.1,0.1-0.1,0.1-0.1c-0.1,0-0.2,0.1-0.2,0.1c-0.2,0-0.4,0-0.7,0
				c0,0,0.1,0,0.1-0.1c-0.1,0-0.2,0-0.3,0c0,0,0.1-0.1,0.1-0.1c-0.1,0-0.2,0-0.3,0.1c0,0,0.1-0.1,0.1-0.1c-0.1,0-0.2,0-0.2,0.1
				c0,0,0.1-0.1,0.1-0.1c-0.1,0-0.1,0-0.2,0.1c-0.1,0-0.3,0.1-0.4,0.3c-0.2,0.1-0.3,0.2-0.4,0.1c0-0.1,0-0.1,0-0.2
				c0,0-0.1,0.1-0.1,0.1c0,0,0-0.1,0-0.1c0,0-0.1,0.1-0.1,0.1c0,0,0-0.1,0-0.1c-0.1,0-0.1,0.1-0.1,0.2c0,0,0-0.1,0-0.1
				c0,0,0,0.1,0,0.1c0,0,0,0-0.1-0.1c0,0,0,0.1,0,0.1c-0.1,0-0.2,0.1-0.4,0.2c0,0-0.1-0.1-0.1-0.1c0,0,0,0.1,0,0.1
				c0,0-0.1-0.1-0.1-0.1c0,0,0,0,0,0.1c0-0.1-0.1-0.1-0.1-0.2c0,0.1,0,0.1,0,0.1c0,0-0.1,0-0.1-0.1c0,0,0.1,0.1,0.1,0.1c0,0,0,0,0,0
				c0,0-0.1,0-0.1,0c0,0.1,0.1,0.1,0.1,0.1c0,0,0,0.1,0,0.1c0,0-0.1-0.1-0.2-0.3c0,0,0,0.1,0,0.1c-0.1,0-0.1-0.1-0.1-0.2
				c0,0,0,0.1,0,0.1c0,0-0.1-0.1-0.1-0.1c0,0,0,0.1,0.1,0.1c0,0-0.1,0-0.1,0c0,0,0.1,0.1,0.1,0.1c0,0,0,0,0,0c-0.1,0-0.1,0-0.2-0.1
				c0,0-0.1,0-0.1,0c0,0,0.1,0,0.1,0.1c0,0-0.1,0-0.1,0c0,0,0.1,0,0.1,0c-0.1,0-0.2,0-0.2,0c0.1,0,0.1,0,0.2,0
				c0.1,0,0.1,0.1,0.2,0.1c-0.1,0-0.1,0-0.2-0.1c0,0,0,0,0.1,0.1c-0.1,0-0.1,0-0.2,0c0,0,0.1,0.1,0.2,0.1c0,0,0.1,0,0.1,0
				c-0.1,0-0.2,0-0.2,0c-0.1,0-0.1,0-0.2,0c0,0,0,0-0.1,0c0.1,0,0.1,0,0.2,0c0,0,0.1,0,0.1,0c-0.1,0-0.2,0-0.2,0c0,0,0,0,0,0
				c0.1,0,0.2,0,0.2,0.1c0,0,0,0,0,0c-0.1,0-0.1,0-0.2,0c0,0,0.1,0,0.1,0c0,0.1-0.1,0.1-0.2,0.1c0,0,0.1,0,0.1,0.1
				c-0.1,0-0.2,0-0.2,0.1c0,0,0,0-0.1,0c0,0,0,0,0.1,0c-0.1,0-0.1,0.1-0.2,0.1c0,0,0.1,0,0.1,0c-0.1,0-0.1,0.1-0.2,0.1
				c0,0-0.1,0.1-0.1,0.1c0,0,0,0,0.1,0c0,0-0.1,0.1-0.1,0.1c0,0,0.1,0,0.1,0c0,0.1-0.1,0.1-0.1,0.1c0,0,0.1,0,0.1,0
				c0,0-0.1,0.1-0.1,0.1c0,0,0.1,0,0.1,0c-0.1,0.1-0.1,0.1-0.2,0.2c0,0,0.1,0,0.1,0c0,0-0.1,0.1-0.1,0.1c0,0,0,0,0,0l0,0
				c0,0,0,0,0,0c0,0,0.1,0,0.1-0.1c-0.1,0.1-0.1,0.1-0.1,0.2c0,0,0.1-0.1,0.1-0.1c-0.1,0.1-0.1,0.2-0.1,0.2c0,0,0,0.1,0,0.1
				c-0.3,0.3-0.5,0.7-0.5,1.1c0,0.3,0.1,0.6,0.3,0.8c-0.1,0.4-0.1,0.6,0,0.8c-0.2,0.4-0.3,0.6-0.5,0.7c-0.1,0-0.2,0-0.3,0
				c-0.2-0.1-0.2-0.2-0.1-0.3c0.1-0.1,0.2-0.3,0.2-0.4c0-0.2,0-0.3,0-0.3c0-0.2,0-0.4-0.1-0.6c-0.1-0.2-0.2-0.3-0.2-0.4
				c0-0.1-0.1-0.3-0.2-0.3c0.1-0.2,0-0.4-0.1-0.5c-0.1-0.1-0.1-0.2-0.1-0.3c0.1-0.2,0-0.4-0.1-0.5c0,0,0-0.1,0-0.1
				c0-0.2,0-0.4-0.1-0.5c0-0.1-0.1-0.1,0-0.2c0-0.2,0-0.4-0.1-0.5c-0.1-0.1-0.1-0.3-0.1-0.4c0-0.1,0-0.2,0-0.4c0-0.1,0-0.3,0-0.4
				c0-0.1,0-0.2,0-0.3c0.2-1.3,0.3-2.2,0.3-2.7c0-0.5-0.1-0.9-0.4-1.2c-0.3-0.3,0-0.8,0.8-1.5c0.8-0.7,1.4-1.4,1.8-2.1
				c0.5-0.7,0.8-1.4,1.1-2c0.4-0.9,0.8-1.7,1.3-2.2c0.6-0.8,1-1.3,1.3-1.5c0.3-0.3,0.7-0.4,1.1-0.5c0.5-0.1,0.8-0.2,1.1-0.2
				c0.3,0,0.6-0.1,0.8-0.2c0.3-0.1,0.6-0.2,0.9-0.1c0.3,0.1,0.6,0.2,0.7,0.3c0.2,0.2,0.3,0.2,0.4,0.1c0.1-0.1,0.1-0.3,0.1-0.5
				c-0.1-0.3-0.3-0.6-0.7-0.7c-0.4-0.1-0.8-0.2-1.4-0.1c0-0.1,0-0.2,0.2-0.4c0.2-0.2,0.3-0.4,0.4-0.5c0.1-0.2,0.3-0.3,0.6-0.5
				c0.3-0.2,0.7-0.5,0.9-0.7c0.3-0.3,0.5-0.5,0.5-0.6c0.3-0.3,0.3-0.5,0.1-0.7c-0.1-0.1-0.3-0.1-0.6,0.1c-0.1,0-0.2,0.2-0.4,0.4
				c-0.1,0.1-0.3,0.3-0.5,0.4c-0.2,0.1-0.4,0.3-0.6,0.5c-0.2,0.2-0.3,0.2-0.5,0.2c-0.1,0,0-0.2,0.2-0.3c0.2-0.1,0.5-0.4,0.7-0.7
				c0.3-0.3,0.6-0.6,1-0.9c0.4-0.3,0.4-0.5,0.2-0.7c-0.2-0.2-0.3-0.2-0.4-0.1c-0.1,0.1-0.3,0.2-0.5,0.4c-0.2,0.1-0.3,0.2-0.5,0.4
				c-0.1,0.1-0.4,0.3-0.8,0.5c0.3-0.4,0.5-0.6,0.7-0.8c0.1-0.1,0.3-0.3,0.4-0.5c0.2-0.2,0.2-0.3,0-0.5c-0.1-0.1-0.3-0.1-0.4,0
				c-0.1,0.1-0.2,0.1-0.3,0.3c0,0-0.1,0.1-0.3,0.2c-0.1,0.1-0.2,0.2-0.3,0.3c-0.1,0.1-0.2,0.2-0.5,0.4c-0.2,0.1-0.4,0.3-0.5,0.5
				c-0.2,0.2-0.4,0.4-0.7,0.6c-0.2,0-0.2-0.1,0-0.3c0.1-0.2,0.2-0.3,0.3-0.5c0.1-0.2,0.2-0.3,0.3-0.3c0.1-0.1,0.2-0.1,0.4-0.2
				c0.1-0.1,0.2-0.2,0.1-0.3c0-0.1-0.2-0.2-0.4-0.1c0,0-0.1,0-0.3,0c-0.1,0-0.3,0.1-0.4,0.2c0,0-0.1,0.1-0.3,0.3
				c-0.1,0.1-0.4,0.4-0.7,0.8c0,0-0.1,0.1-0.2,0.2c-0.1,0.1-0.2,0.2-0.4,0.5c-0.1,0.2-0.4,0.4-0.7,0.8c-0.3,0.3-0.5,0.7-0.6,1.1
				c-0.1,0.4-0.3,0.8-0.7,1.2c-0.3,0.4-1,1-2.1,2c-0.7,0.6-1.3,1.2-2,1.9c-0.6,0.6-1.2,1.4-1.8,2.3C249.8,27.1,249.5,27.6,249.2,28z
				"/>
		</g>
	</g>
	<g>
		<path class="st0" d="M46.1,144.8c-3.2,0-5.9-0.4-7.9-1.2c-2.1-0.8-3.9-2-5.3-3.4c-1.5-1.5-2.6-3-3.2-4.5c-1-2.2-1.4-4.5-1.4-6.7
			c0-2.8,0.8-5.7,2.3-8.4c1.5-2.7,4-5,7.3-6.7c2.4-1.2,5.6-1.8,9.6-1.8c2.8,0,5.1,0.2,6.9,0.7c1.8,0.5,3.2,1,4.3,1.7l0.1,0l0,0.1
			l0.3,3.7c0.1,1.1,0.1,1.9,0.1,2.3v0.1l-0.9,0.2l0-0.1c-1.1-2.4-2.4-4.3-4-5.5c-1.6-1.2-3.5-1.8-5.8-1.8c-2.8,0-5,0.3-6.6,1
			c-2.3,1-4.2,2.7-5.8,5.1c-1.6,2.4-2.4,5.4-2.4,8.8c0,2,0.3,3.8,0.9,5.3c0.6,1.6,1.4,3,2.5,4.4c1.1,1.4,2.4,2.5,3.8,3.5
			c1,0.7,2.1,1.2,3.4,1.5c0.7,0.2,1.9,0.3,3.4,0.3c1,0,2-0.1,3.2-0.4c1.2-0.3,2-0.6,2.6-1.1c0.6-0.4,1-1,1.2-1.5
			c0.2-0.6,0.3-1.7,0.3-3.4c0-3.4-0.3-4.5-0.5-4.8c-0.2-0.3-1-0.7-3.4-0.9l-1-0.1l-0.6,0c-0.1,0-0.3,0-0.4-0.1l-0.1,0l-0.4-0.7v0
			c0-0.1,0.1-0.2,0.2-0.4l0,0l0,0c0.8-0.1,2.7-0.2,5.5-0.2c0.6,0,1.7,0,3.1,0.1l2.5,0.1l2.3,0c0.4,0,1,0,1.6,0
			c0.2,0,0.3,0.1,0.3,0.1c0.1,0.1,0.1,0.2,0.1,0.3c0,0.2,0,0.4-0.1,0.7l0,0.1l-0.1,0c-0.7,0.1-1.2,0.2-1.6,0.2l-1.6,0
			c-0.5,0-0.9,0.2-1.2,0.5c-0.1,0.1-0.2,0.4-0.2,1.7l0,3.2c0,2.2-0.1,3.6-0.3,4.2c-0.1,0.4-0.3,0.7-0.6,1c-0.3,0.3-1,0.6-2,1
			c-1.4,0.6-2.7,1-3.9,1.2C50.1,144.7,48.1,144.8,46.1,144.8z"/>
		<path class="st0" d="M80,144.9c-1.2,0-2.3-0.2-3.5-0.7c-1.7-0.7-3-1.9-4-3.5c-1-1.6-1.4-3.6-1.4-5.8c0-0.7,0.1-1.7,0.4-2.8
			c0.3-1.1,0.8-2.3,1.5-3.6c0.5-0.9,1.1-1.6,1.8-2.2c1-0.8,1.8-1.3,2.6-1.7c1.1-0.4,2.3-0.7,3.7-0.7c1.5,0,2.8,0.3,3.8,0.8
			c1.3,0.7,2.3,1.7,3,2.9c0.6,1.2,1,2.3,1,3.2v0.5l-9.9,0.1H77c-0.7,0-1.5,0-2.2,0.1c-0.1,0.4-0.2,0.7-0.2,0.9l0,0.2l0,0.3l0,1.2
			c0,1,0.3,2.2,0.9,3.6c0.6,1.4,1.5,2.5,2.6,3.2c1.1,0.7,2.6,1.1,4.3,1.2c0.9,0,1.6-0.2,2.2-0.3c0.5-0.2,1.3-0.6,2.3-1.2l1.9-1.6
			l0.2,1.2c0,0.1,0,0.3,0,0.4l0,0l0,0c-0.7,0.9-1.7,1.8-2.8,2.5c-1.1,0.7-2.3,1.2-3.4,1.5C82.2,144.8,81.3,144.9,80,144.9z
			 M75.2,130.3h1c0.8,0,3.3-0.1,7.4-0.4c0.8,0,1.1-0.1,1.1-0.2c0.2-0.3,0.4-0.5,0.4-0.7c0-0.5-0.2-1-0.5-1.7
			c-0.3-0.6-0.8-1.1-1.4-1.4c-0.6-0.3-1.4-0.5-2.3-0.5c-1.8,0-3.3,0.7-4.4,2.1C75.6,128.5,75.2,129.4,75.2,130.3z"/>
		<path class="st0" d="M96,144.3l-0.1-0.5c0-0.1,0.1-0.3,0.2-0.6l0,0l0.1,0l1.4-0.3l2-0.4c0.1-0.1,0.2-0.2,0.3-0.3
			c0.1-0.1,0.1-0.6,0.1-1.8c0-5.5,0-8.7-0.1-9.5c-0.1-1-0.3-1.4-0.4-1.5c-0.1-0.1-0.5-0.3-1.7-0.5c-0.6-0.1-1-0.2-1.3-0.3l-0.1,0
			l0.1-0.9l0.1,0c1.7-0.7,2.8-1.3,3.4-1.8c0.8-0.7,1.5-1.7,2-2.8l0-0.1l1,0l0,0.1c0.1,0.8,0.1,2.6,0.1,5.4l0,0.4c0,0,0,0,0,0
			c0.6-1,1.3-1.9,2.1-2.8l0.6-0.6c0.2-0.3,0.5-0.5,0.7-0.6c1.2-0.7,2-1,2.6-1c0.7,0,1.4,0.3,1.9,0.8c0.5,0.5,0.7,1.1,0.7,1.9
			c0,0.6-0.2,1.1-0.5,1.4c-0.5,0.4-1,0.6-1.6,0.6c-0.3,0-0.8-0.1-1.6-0.4c-0.9-0.3-1.3-0.4-1.5-0.4c-0.4,0-0.7,0.1-0.9,0.2
			c-0.4,0.3-1,1.1-1.6,2.2c-0.5,0.8-0.7,1.5-0.7,2.2l0.1,4l0,4.8c0.1,0.7,0.1,0.9,0.2,1c0,0.1,0.1,0.2,0.4,0.3
			c1.7,0.1,2.8,0.2,3.1,0.3c0.2,0,0.4,0,0.5,0c0.7,0,1.2,0.1,1.5,0.3c0.2,0.1,0.3,0.3,0.3,0.5c0,0.1-0.1,0.3-0.2,0.5l0,0.1l-3.8-0.1
			l-1.5,0h-2.5l-1.3,0.1L96,144.3z"/>
		<path class="st0" d="M127.6,144.4L127.6,144.4c-0.7,0-1.5-0.1-2.5-0.1c-1.4-0.1-2.2-0.2-2.7-0.2c-0.2,0-1.5,0-3.9,0.1
			c-0.5,0-1,0.1-1.4,0.1c-0.1,0-0.3,0-0.4-0.1l0,0l0,0c-0.1-0.1-0.1-0.3-0.1-0.4c0-0.3,0.2-0.5,0.5-0.7c0,0,0.1-0.1,2.5-0.6
			c0.5-0.1,0.8-0.2,0.9-0.4c0.3-0.3,0.4-0.8,0.4-1.5c0-1.2,0-4.7,0-10.2c0-1.1,0-1.8-0.1-2c-0.1-0.2-0.3-0.4-0.6-0.6
			c-0.3-0.2-1.1-0.5-2.2-0.7l-0.1,0l0-0.9l0.1,0c1.3-0.4,1.6-0.5,1.7-0.5c0.6-0.3,1.2-0.7,1.8-1.2c0.6-0.5,1.2-1.1,1.6-1.8l0,0
			l0.1,0c0.2,0,0.4-0.1,0.5-0.1l0.4,0l0,0.1c0.1,0.8,0.1,1.4,0.1,1.7c0,0.1,0,0.4,0,1.1v1.3l0,7l-0.1,7.4c0,0.6,0.1,1,0.3,1.2
			c0.1,0.1,0.6,0.4,1.8,0.7c0.7,0.2,1.1,0.3,1.5,0.5l0.1,0l0,0.1c0.1,0.1,0.1,0.2,0.1,0.3C127.8,144,127.8,144.1,127.6,144.4
			L127.6,144.4z M122.2,116.5c-0.6,0-1.2-0.2-1.6-0.6c-0.4-0.4-0.6-1-0.6-1.7c0-0.6,0.2-1.1,0.7-1.5c0.4-0.4,1-0.6,1.6-0.6
			c0.6,0,1.2,0.2,1.7,0.7c0.5,0.5,0.7,1,0.7,1.5c0,0.5-0.2,1-0.7,1.5C123.4,116.3,122.9,116.5,122.2,116.5z"/>
		<path class="st0" d="M165.2,144.2c-0.8,0-2.3,0-4.4-0.1l-2.4-0.1l-2.9,0c-0.2,0-0.4,0-0.6,0c-0.2,0-0.4,0-0.5,0h-0.5
			c-0.2,0-0.4-0.1-0.6-0.2l-0.1,0v-0.1c0-0.2,0-0.5,0.1-0.7l0,0l0,0c0.2-0.1,0.4-0.2,0.6-0.2l2.6-0.2c0.6,0,1.1-0.1,1.4-0.2
			c0.1-0.3,0.1-0.5,0.1-0.6c0-0.2-0.1-0.7-0.6-2.2c-0.3-0.8-0.5-1.6-0.8-2.3c-0.2-0.7-1.1-3.1-2.6-7.1c-0.6-0.1-1.2-0.2-1.7-0.2
			l-5.2,0.1l-1.5,0c-0.5,0-1.1,0-1.7,0.1c-0.2,0.4-0.3,0.8-0.4,1l-2.1,6.7c-1.1,3.1-1.4,4-1.4,4.2c0,0.1,0,0.3,0.2,0.6
			c0.3,0.1,0.8,0.2,1.3,0.2l3.3,0.3l0,0c0.2,0.2,0.3,0.3,0.3,0.5c0,0.1,0,0.2-0.1,0.4l0,0.1l-0.1,0c-0.7,0-1.3,0-1.7,0
			c-1.3,0-2.8,0-4.5-0.1c-0.8,0-1.3,0-1.7,0c-0.3,0-0.9,0-1.8,0c-0.5,0-0.9,0-1.2,0c-0.4,0-0.9,0-1.5-0.1l-0.1,0v-0.3
			c0-0.1,0-0.3,0.1-0.5l0,0l0,0c0.2-0.1,0.5-0.2,0.7-0.2h0.6c0.1,0,0.3,0,0.6,0c1.5-0.1,2-0.3,2.2-0.3c0.5-0.3,1-0.8,1.4-1.5
			c0.8-1.6,1.8-4,2.8-7c0.5-1.5,0.8-2.3,1-2.6c0.4-1,0.8-2,1.2-3.1l2.3-6.4c0.4-1,1.2-3.3,2.6-6.9c0.3-0.9,0.8-2.1,1.2-3.6l0-0.1
			l0.8-0.1l0.9,0l0,0.1c0.7,1.4,1.3,2.9,1.9,4.5c0.3,0.8,0.8,2.1,1.4,3.8l3.7,10l2,5.4c1,3.1,1.7,5,2,5.7c0.3,0.7,0.6,1.1,0.9,1.3
			c0,0,0.1,0.1,0.9,0.3c0.6,0.1,0.9,0.2,1.1,0.3c0.8,0.2,1.3,0.4,1.6,0.5l0,0l0,0.1c0.1,0.2,0.1,0.3,0.1,0.5c0,0.1,0,0.2-0.1,0.4
			l0,0.1l-0.1,0C165.8,144.2,165.4,144.2,165.2,144.2z M144.4,128.6c1.7,0.1,3.7,0.1,5.9,0.1c1.2,0,2.2,0,3.2-0.1
			c-0.2-0.6-0.3-1.1-0.5-1.6c-1.1-2.9-1.6-4.4-1.7-4.7l-2.2-5.6l-0.1-0.2c-0.2,0.4-0.5,1.1-1,2.3c-1,2.5-1.8,4.5-2.2,5.9
			c-0.2,0.6-0.4,1.3-0.7,1.9c-0.2,0.6-0.4,1.1-0.4,1.3C144.6,128.1,144.5,128.4,144.4,128.6L144.4,128.6z"/>
		<path class="st0" d="M183.1,145c-1.8,0-3.5-0.5-5-1.4c-1.5-1-2.6-2.3-3.4-4.1c-0.8-1.7-1.2-3.5-1.2-5.2c0-1.8,0.5-3.6,1.4-5.3
			c1-1.6,2.2-2.9,3.8-3.7c1.6-0.8,3.6-1.2,6-1.2c2.3,0,4.1,0.4,5.3,1.2c0.7,0.5,1.1,1.1,1.1,1.9c0,0.6-0.2,1-0.5,1.4
			c-0.4,0.4-0.8,0.6-1.4,0.6c-0.8,0-1.8-0.5-2.8-1.6c-0.6-0.6-1.1-1-1.6-1.2c-0.5-0.2-1-0.3-1.6-0.3c-1.4,0-2.6,0.6-3.5,1.7
			c-1.3,1.6-2,3.8-2,6.3c0,2.6,0.7,4.7,2,6.2c1.3,1.5,2.9,2.3,4.7,2.3c1.2,0,2.4-0.2,3.3-0.6c1-0.4,2.1-1.2,3.4-2.3l0.2-0.2l0,1.9
			l0,0c-1.3,1.3-2.5,2.3-3.8,2.8C186.2,144.7,184.8,145,183.1,145z"/>
		<path class="st0" d="M206.2,144.7c-1.1,0-2-0.3-2.7-0.8c-0.7-0.5-1.2-1.1-1.4-1.8c-0.2-0.7-0.3-2.2-0.3-4.4l0.1-5.5l0-3.6
			c0-0.4,0-0.8,0-1.2l-0.3,0l-2.2,0.1c0,0,0,0,0,0c-0.2,0-0.4-0.1-0.5-0.2c-0.1-0.1-0.2-0.2-0.2-0.4c0-0.2,0.1-0.4,0.2-0.6
			c0.1-0.1,0.3-0.2,1.1-0.6c0.4-0.2,0.9-0.5,1.4-1c0.5-0.5,1-1,1.4-1.6c0.2-0.3,0.5-0.9,0.8-1.8c0.3-0.7,0.5-1.1,0.6-1.4l0-0.1l1,0
			l0.1,2.4l0,2.9c0.2,0,0.4,0,0.4,0c0.4,0,1.2,0,2.4-0.1c0.8-0.1,1.5-0.1,2.2-0.1c0.3,0,0.8,0,1.5,0l0.1,0l0,0.1c0,0.3,0,0.6,0,0.8
			c0,0.2,0,0.6-0.1,1l0,0.1h-0.5l-5.6,0.2l-0.3,0c-0.1,0.4-0.2,0.8-0.2,1.3l0.1,3.6l0,6.4c0,1.6,0.2,2.7,0.6,3.3
			c0.4,0.5,1,0.8,1.8,0.8c0.4,0,1.2-0.1,2.4-0.4c0.3-0.1,0.8-0.3,1.4-0.8l0,0h0.3c0.2,0,0.3,0.1,0.4,0.2c0.1,0.1,0.2,0.3,0.2,0.5
			l0,0.2l0,0c-0.7,0.8-1.5,1.3-2.4,1.7C208.9,144.6,207.7,144.7,206.2,144.7z"/>
		<g>
			<path class="st0" d="M218.7,134.3c0-1.1,0.2-2.3,0.7-3.5c0.5-1.3,1.2-2.4,2.1-3.4c0.9-1,1.9-1.7,3-2.2c1.5-0.7,3.3-1,5.4-1
				c3,0,5.6,1,7.6,3.1c2,2.1,3.1,4.6,3.1,7.5c0,2.6-1.1,4.9-3.2,6.9c-2.1,2-4.8,3.1-8.1,3.1c-2,0-3.9-0.5-5.7-1.6
				c-1.3-0.8-2.5-2-3.4-3.5C219.2,138.1,218.7,136.3,218.7,134.3z M229.5,143.8c1.2,0,2.4-0.3,3.6-1c1.1-0.7,2.1-1.7,2.7-3.2
				c0.7-1.5,1-3.2,1-5.1c0-1.3-0.3-2.7-0.8-4.4c-0.5-1.7-1.3-2.9-2.4-3.8s-2.4-1.3-3.9-1.3c-1.1,0-2.2,0.3-3.3,0.8
				c-1.1,0.5-2.1,1.5-2.8,2.9c-0.8,1.4-1.2,3.5-1.2,6.1c0,2.9,0.7,5.2,2,6.7C225.8,143.1,227.5,143.8,229.5,143.8z"/>
		</g>
		<path class="st0" d="M248.2,144.3l-0.1-0.5c0-0.1,0.1-0.3,0.2-0.6l0,0l0.1,0l1.4-0.3l2-0.4c0.1-0.1,0.2-0.2,0.3-0.3
			c0.1-0.1,0.1-0.6,0.1-1.8c0-5.5,0-8.7-0.1-9.5c-0.1-1-0.3-1.4-0.4-1.5c-0.1-0.1-0.5-0.3-1.7-0.5c-0.6-0.1-1-0.2-1.3-0.3l-0.1,0
			l0.1-0.9l0.1,0c1.7-0.7,2.8-1.3,3.4-1.8c0.8-0.7,1.5-1.7,2-2.8l0-0.1l1,0l0,0.1c0.1,0.8,0.1,2.6,0.1,5.4l0,0.4c0,0,0,0,0,0
			c0.6-1,1.3-1.9,2.1-2.8l0.6-0.6c0.2-0.3,0.5-0.5,0.7-0.6c1.2-0.7,2-1,2.6-1c0.7,0,1.4,0.3,1.8,0.8c0.5,0.5,0.7,1.1,0.7,1.9
			c0,0.6-0.2,1.1-0.5,1.4c-0.5,0.4-1,0.6-1.6,0.6c-0.3,0-0.8-0.1-1.6-0.4c-0.9-0.3-1.3-0.4-1.5-0.4c-0.4,0-0.7,0.1-0.9,0.2
			c-0.4,0.4-1,1.1-1.6,2.2c-0.5,0.8-0.7,1.5-0.7,2.2l0.1,4l0,4.8c0.1,0.7,0.1,0.9,0.2,1c0,0.1,0.1,0.2,0.4,0.3
			c1.7,0.1,2.8,0.2,3.1,0.3c0.2,0,0.4,0,0.5,0c0.7,0,1.2,0.1,1.5,0.3c0.2,0.1,0.3,0.3,0.3,0.5c0,0.1-0.1,0.3-0.2,0.5l0,0.1l-3.8-0.1
			l-1.5,0h-2.5l-1.3,0.1L248.2,144.3z"/>
		<path class="st0" d="M278.1,145c-2.1,0-4-0.4-5.7-1.2l0,0c-0.2-0.2-0.3-0.4-0.3-0.8c0-0.1,0-0.4,0-0.7c-0.3-2.2-0.4-3.5-0.4-3.9
			c0-0.2,0.1-0.4,0.2-0.5c0.1-0.1,0.2-0.1,0.7-0.1h0.1l0,0.1c0.6,1.5,1.1,2.5,1.3,3c0.6,0.9,1.3,1.6,2.2,2.1
			c0.8,0.5,1.8,0.8,2.7,0.8c0.9,0,1.8-0.4,2.7-1.2c0.6-0.6,0.9-1.2,0.9-2c0-1-0.4-2-1.1-2.8c-0.7-0.9-2.2-1.7-4.3-2.5
			c-2.1-0.8-3.6-1.7-4.4-2.6c-0.7-0.9-1.1-2-1.1-3.2c0-1.1,0.3-2.1,0.9-3c0.6-0.9,1.5-1.5,2.5-2c1.1-0.4,2.1-0.7,3-0.7
			c1.2,0,2.2,0.1,3.1,0.3c0.9,0.2,1.7,0.5,2.4,0.8l0.1,0l0,0.1c0.1,0.8,0.2,2,0.3,3.7l0.1,0.9l-0.1,0c-0.2,0-0.4,0-0.5,0h-0.4l0-0.1
			c-0.5-1.3-1.2-2.4-2.2-3.1c-1-0.8-1.9-1.1-2.9-1.1c-0.9,0-1.7,0.3-2.3,0.8c-0.6,0.6-0.9,1.3-0.9,2.2c0,0.7,0.2,1.3,0.7,1.9
			c0.5,0.5,1.6,1.2,3.4,1.9c1.8,0.7,3.1,1.4,3.9,2c0.8,0.6,1.5,1.4,1.8,2.3c0.4,0.9,0.6,1.8,0.6,2.6c0,1.1-0.4,2.2-1.1,3.2
			c-0.8,1-1.7,1.7-2.8,2.1C280,144.8,278.9,145,278.1,145z"/>
	</g>
</g>
</svg>
